{
  "accessors": [
    {
      "bufferView": 2,
      "componentType": 5126,
      "count": 321,
      "max": [
        1.0317853689193726,
        1.2825918197631836,
        1.1551635265350342
      ],
      "min": [
        -1.0317970514297485,
        -1.094785213470459,
        -1.1039464473724365
      ],
      "type": "VEC3"
    },
    {
      "bufferView": 2,
      "byteOffset": 3852,
      "componentType": 5126,
      "count": 321,
      "max": [
        0.9859654307365417,
        0.9999948740005493,
        0.9995255470275879
      ],
      "min": [
        -0.9859654307365417,
        -1.0,
        -0.9982874989509583
      ],
      "type": "VEC3"
    },
    {
      "bufferView": 1,
      "componentType": 5126,
      "count": 321,
      "max": [
        0.4284082055091858,
        0.9760233759880066
      ],
      "min": [
        0.008251070976257324,
        0.12405931949615479
      ],
      "type": "VEC2"
    },
    {
      "bufferView": 0,
      "componentType": 5125,
      "count": 1722,
      "type": "SCALAR"
    },
    {
      "bufferView": 2,
      "byteOffset": 7704,
      "componentType": 5126,
      "count": 140,
      "max": [
        1.4030662775039673,
        0.43384236097335815,
        0.3098907470703125
      ],
      "min": [
        -1.4030661582946777,
        -0.41414862871170044,
        -0.3098907768726349
      ],
      "type": "VEC3"
    },
    {
      "bufferView": 2,
      "byteOffset": 9384,
      "componentType": 5126,
      "count": 140,
      "max": [
        0.9636710286140442,
        0.9726923704147339,
        0.9985319375991821
      ],
      "min": [
        -0.9636710286140442,
        -0.9325900077819824,
        -0.9985395669937134
      ],
      "type": "VEC3"
    },
    {
      "bufferView": 1,
      "byteOffset": 2568,
      "componentType": 5126,
      "count": 140,
      "max": [
        0.9273805022239685,
        0.9754966497421265
      ],
      "min": [
        0.47746741771698,
        0.4878920316696167
      ],
      "type": "VEC2"
    },
    {
      "bufferView": 0,
      "byteOffset": 6888,
      "componentType": 5125,
      "count": 588,
      "type": "SCALAR"
    },
    {
      "bufferView": 2,
      "byteOffset": 11064,
      "componentType": 5126,
      "count": 32,
      "max": [
        0.10562761127948761,
        0.7033551931381226,
        1.0245349407196045
      ],
      "min": [
        -0.1056276187300682,
        0.5024645328521729,
        0.8708825707435608
      ],
      "type": "VEC3"
    },
    {
      "bufferView": 2,
      "byteOffset": 11448,
      "componentType": 5126,
      "count": 32,
      "max": [
        0.9596286416053772,
        0.9946610331535339,
        0.9983280897140503
      ],
      "min": [
        -0.9596286416053772,
        -0.9981681108474731,
        -0.9875031113624573
      ],
      "type": "VEC3"
    },
    {
      "bufferView": 1,
      "byteOffset": 3688,
      "componentType": 5126,
      "count": 32,
      "max": [
        0.46531444787979126,
        0.6434059739112854
      ],
      "min": [
        0.41227978467941284,
        0.4303357005119324
      ],
      "type": "VEC2"
    },
    {
      "bufferView": 0,
      "byteOffset": 9240,
      "componentType": 5125,
      "count": 168,
      "type": "SCALAR"
    },
    {
      "bufferView": 2,
      "byteOffset": 11832,
      "componentType": 5126,
      "count": 202,
      "max": [
        0.8107798099517822,
        -0.8618558049201965,
        0.5043387413024902
      ],
      "min": [
        -0.8107798099517822,
        -1.1992194652557373,
        -0.07071341574192047
      ],
      "type": "VEC3"
    },
    {
      "bufferView": 2,
      "byteOffset": 14256,
      "componentType": 5126,
      "count": 202,
      "max": [
        1.0,
        1.0,
        1.0
      ],
      "min": [
        -1.0,
        -1.0,
        -1.0
      ],
      "type": "VEC3"
    },
    {
      "bufferView": 1,
      "byteOffset": 3944,
      "componentType": 5126,
      "count": 202,
      "max": [
        0.9781893491744995,
        0.4154975414276123
      ],
      "min": [
        0.44563424587249756,
        0.07543015480041504
      ],
      "type": "VEC2"
    },
    {
      "bufferView": 0,
      "byteOffset": 9912,
      "componentType": 5125,
      "count": 900,
      "type": "SCALAR"
    },
    {
      "bufferView": 2,
      "byteOffset": 16680,
      "componentType": 5126,
      "count": 438,
      "max": [
        0.5786923170089722,
        0.9088125228881836,
        0.8719879388809204
      ],
      "min": [
        -0.5786924362182617,
        0.5430158972740173,
        0.6172178983688354
      ],
      "type": "VEC3"
    },
    {
      "bufferView": 2,
      "byteOffset": 21936,
      "componentType": 5126,
      "count": 438,
      "max": [
        0.9484962224960327,
        0.988229513168335,
        0.9995369911193848
      ],
      "min": [
        -0.9484962224960327,
        -0.9913702011108398,
        -0.9991645812988281
      ],
      "type": "VEC3"
    },
    {
      "bufferView": 1,
      "byteOffset": 5560,
      "componentType": 5126,
      "count": 438,
      "max": [
        0.8003314137458801,
        0.46603822708129883
      ],
      "min": [
        0.6354117393493652,
        0.3011184334754944
      ],
      "type": "VEC2"
    },
    {
      "bufferView": 0,
      "byteOffset": 13512,
      "componentType": 5125,
      "count": 2160,
      "type": "SCALAR"
    }
  ],
  "asset": {
    "extras": {
      "author": "totomori (https://sketchfab.com/totomori)",
      "license": "CC-BY-4.0 (http://creativecommons.org/licenses/by/4.0/)",
      "source": "https://sketchfab.com/3d-models/cute-lowpoly-penguin-7928ccfb111d40c6a81673c90b66c182",
      "title": "Cute lowpoly penguin"
    },
    "generator": "Sketchfab-16.28.0",
    "version": "2.0"
  },
  "bufferViews": [
    {
      "buffer": 0,
      "byteLength": 22152,
      "name": "floatBufferViews",
      "target": 34963
    },
    {
      "buffer": 0,
      "byteLength": 9064,
      "byteOffset": 22152,
      "byteStride": 8,
      "name": "floatBufferViews",
      "target": 34962
    },
    {
      "buffer": 0,
      "byteLength": 27192,
      "byteOffset": 31216,
      "byteStride": 12,
      "name": "floatBufferViews",
      "target": 34962
    }
  ],
  "buffers": [
    {
      "byteLength": 58408,
      "uri": "scene.bin"
    }
  ],
  "images": [
    {
      "uri": "textures/Penguin_material_baseColor.png"
    }
  ],
  "materials": [
    {
      "doubleSided": true,
      "name": "Penguin_material",
      "pbrMetallicRoughness": {
        "baseColorTexture": {
          "index": 0
        },
        "metallicFactor": 0.0,
        "roughnessFactor": 0.6
      }
    }
  ],
  "meshes": [
    {
      "name": "Object_0",
      "primitives": [
        {
          "attributes": {
            "NORMAL": 1,
            "POSITION": 0,
            "TEXCOORD_0": 2
          },
          "indices": 3,
          "material": 0,
          "mode": 4
        }
      ]
    },
    {
      "name": "Object_1",
      "primitives": [
        {
          "attributes": {
            "NORMAL": 5,
            "POSITION": 4,
            "TEXCOORD_0": 6
          },
          "indices": 7,
          "material": 0,
          "mode": 4
        }
      ]
    },
    {
      "name": "Object_2",
      "primitives": [
        {
          "attributes": {
            "NORMAL": 9,
            "POSITION": 8,
            "TEXCOORD_0": 10
          },
          "indices": 11,
          "material": 0,
          "mode": 4
        }
      ]
    },
    {
      "name": "Object_3",
      "primitives": [
        {
          "attributes": {
            "NORMAL": 13,
            "POSITION": 12,
            "TEXCOORD_0": 14
          },
          "indices": 15,
          "material": 0,
          "mode": 4
        }
      ]
    },
    {
      "name": "Object_4",
      "primitives": [
        {
          "attributes": {
            "NORMAL": 17,
            "POSITION": 16,
            "TEXCOORD_0": 18
          },
          "indices": 19,
          "material": 0,
          "mode": 4
        }
      ]
    }
  ],
  "nodes": [
    {
      "children": [
        1
      ],
      "matrix": [
        1.0,
        0.0,
        0.0,
        0.0,
        0.0,
        2.220446049250313e-16,
        -1.0,
        0.0,
        0.0,
        1.0,
        2.220446049250313e-16,
        0.0,
        0.0,
        0.0,
        0.0,
        1.0
      ],
      "name": "Sketchfab_model"
    },
    {
      "children": [
        2
      ],
      "name": "root"
    },
    {
      "children": [
        3,
        5,
        7,
        9,
        11
      ],
      "matrix": [
        1.0,
        0.0,
        0.0,
        0.0,
        0.0,
        2.220446049250313e-16,
        1.0,
        0.0,
        0.0,
        -1.0,
        2.220446049250313e-16,
        0.0,
        0.0,
        0.0,
        0.0,
        1.0
      ],
      "name": "GLTF_SceneRootNode"
    },
    {
      "children": [
        4
      ],
      "matrix": [
        1.0,
        0.0,
        0.0,
        0.0,
        0.0,
        1.0,
        0.0,
        0.0,
        0.0,
        0.0,
        1.0,
        0.0,
        5.801432052976452e-06,
        1.6730622053146362,
        -0.04221305996179581,
        1.0
      ],
      "name": "Penguin body_0"
    },
    {
      "mesh": 0,
      "name": "Object_4"
    },
    {
      "children": [
        6
      ],
      "matrix": [
        1.0,
        0.0,
        0.0,
        0.0,
        0.0,
        1.0,
        0.0,
        0.0,
        0.0,
        0.0,
        1.0,
        0.0,
        0.0,
        1.6204367876052856,
        0.0,
        1.0
      ],
      "name": "Wings_1"
    },
    {
      "mesh": 1,
      "name": "Object_6"
    },
    {
      "children": [
        8
      ],
      "matrix": [
        1.0,
        0.0,
        0.0,
        0.0,
        0.0,
        1.0,
        0.0,
        0.0,
        0.0,
        0.0,
        1.0,
        0.0,
        0.0,
        1.6204367876052856,
        0.0,
        1.0
      ],
      "name": "Beak_2"
    },
    {
      "mesh": 2,
      "name": "Object_8"
    },
    {
      "children": [
        10
      ],
      "matrix": [
        1.0,
        0.0,
        0.0,
        0.0,
        0.0,
        1.0,
        0.0,
        0.0,
        0.0,
        0.0,
        1.0,
        0.0,
        0.0,
        1.6204367876052856,
        0.0,
        1.0
      ],
      "name": "Legs_3"
    },
    {
      "mesh": 3,
      "name": "Object_10"
    },
    {
      "children": [
        12
      ],
      "matrix": [
        1.0,
        0.0,
        0.0,
        0.0,
        0.0,
        1.0,
        0.0,
        0.0,
        0.0,
        0.0,
        1.0,
        0.0,
        0.0,
        1.6204367876052856,
        0.0,
        1.0
      ],
      "name": "Eyes_4"
    },
    {
      "mesh": 4,
      "name": "Object_12"
    }
  ],
  "samplers": [
    {
      "magFilter": 9729,
      "minFilter": 9987,
      "wrapS": 10497,
      "wrapT": 10497
    }
  ],
  "scene": 0,
  "scenes": [
    {
      "name": "Sketchfab_Scene",
      "nodes": [
        0
      ]
    }
  ],
  "textures": [
    {
      "sampler": 0,
      "source": 0
    }
  ]
}
