{
  "accessors": [
    {
      "bufferView": 2,
      "componentType": 5126,
      "count": 65532,
      "max": [
        0.3843129873275757,
        0.2406100034713745,
        0.13768400251865387
      ],
      "min": [
        -0.23051300644874573,
        -0.2473980039358139,
        -0.3841780126094818
      ],
      "type": "VEC3"
    },
    {
      "bufferView": 2,
      "byteOffset": 786384,
      "componentType": 5126,
      "count": 65532,
      "max": [
        0.9999710321426392,
        0.9999847412109375,
        0.9999823570251465
      ],
      "min": [
        -0.9999394416809082,
        -0.9999784231185913,
        -0.9999862909317017
      ],
      "type": "VEC3"
    },
    {
      "bufferView": 1,
      "componentType": 5126,
      "count": 65532,
      "max": [
        0.9995989799499512,
        0.9995989799499512
      ],
      "min": [
        0.00040099999750964344,
        0.0004010200500488281
      ],
      "type": "VEC2"
    },
    {
      "bufferView": 1,
      "byteOffset": 524256,
      "componentType": 5126,
      "count": 65532,
      "max": [
        0.9995989799499512,
        0.9995989799499512
      ],
      "min": [
        0.00040099999750964344,
        0.0004010200500488281
      ],
      "type": "VEC2"
    },
    {
      "bufferView": 1,
      "byteOffset": 1048512,
      "componentType": 5126,
      "count": 65532,
      "max": [
        0.9995989799499512,
        0.9995989799499512
      ],
      "min": [
        0.00040099999750964344,
        0.0004010200500488281
      ],
      "type": "VEC2"
    },
    {
      "bufferView": 1,
      "byteOffset": 1572768,
      "componentType": 5126,
      "count": 65532,
      "max": [
        0.9995989799499512,
        0.9995989799499512
      ],
      "min": [
        0.00040099999750964344,
        0.0004010200500488281
      ],
      "type": "VEC2"
    },
    {
      "bufferView": 0,
      "componentType": 5125,
      "count": 323961,
      "type": "SCALAR"
    },
    {
      "bufferView": 2,
      "byteOffset": 1572768,
      "componentType": 5126,
      "count": 65532,
      "max": [
        0.3948090076446533,
        0.24831700325012207,
        0.25169599056243896
      ],
      "min": [
        -0.3981820046901703,
        -0.11790899932384491,
        -0.40543800592422485
      ],
      "type": "VEC3"
    },
    {
      "bufferView": 2,
      "byteOffset": 2359152,
      "componentType": 5126,
      "count": 65532,
      "max": [
        0.9999985694885254,
        0.9999762773513794,
        0.9999969005584717
      ],
      "min": [
        -0.9998189806938171,
        -0.9999680519104004,
        -0.9999971389770508
      ],
      "type": "VEC3"
    },
    {
      "bufferView": 1,
      "byteOffset": 2097024,
      "componentType": 5126,
      "count": 65532,
      "max": [
        0.9995989799499512,
        0.9995989799499512
      ],
      "min": [
        0.00040099999750964344,
        0.0004010200500488281
      ],
      "type": "VEC2"
    },
    {
      "bufferView": 1,
      "byteOffset": 2621280,
      "componentType": 5126,
      "count": 65532,
      "max": [
        0.9995989799499512,
        0.9995989799499512
      ],
      "min": [
        0.00040099999750964344,
        0.0004010200500488281
      ],
      "type": "VEC2"
    },
    {
      "bufferView": 1,
      "byteOffset": 3145536,
      "componentType": 5126,
      "count": 65532,
      "max": [
        0.9995989799499512,
        0.9995989799499512
      ],
      "min": [
        0.00040099999750964344,
        0.0004010200500488281
      ],
      "type": "VEC2"
    },
    {
      "bufferView": 1,
      "byteOffset": 3669792,
      "componentType": 5126,
      "count": 65532,
      "max": [
        0.9995989799499512,
        0.9995989799499512
      ],
      "min": [
        0.00040099999750964344,
        0.0004010200500488281
      ],
      "type": "VEC2"
    },
    {
      "bufferView": 0,
      "byteOffset": 1295844,
      "componentType": 5125,
      "count": 321708,
      "type": "SCALAR"
    },
    {
      "bufferView": 2,
      "byteOffset": 3145536,
      "componentType": 5126,
      "count": 65532,
      "max": [
        0.3757080137729645,
        0.24841900169849396,
        0.4228000044822693
      ],
      "min": [
        -0.410629004240036,
        -0.20612899959087372,
        -0.42973700165748596
      ],
      "type": "VEC3"
    },
    {
      "bufferView": 2,
      "byteOffset": 3931920,
      "componentType": 5126,
      "count": 65532,
      "max": [
        0.9999716281890869,
        0.9999980926513672,
        1.0
      ],
      "min": [
        -0.999947190284729,
        -0.99997878074646,
        -0.9999998807907104
      ],
      "type": "VEC3"
    },
    {
      "bufferView": 1,
      "byteOffset": 4194048,
      "componentType": 5126,
      "count": 65532,
      "max": [
        0.9995989799499512,
        0.9995989799499512
      ],
      "min": [
        0.00040099999750964344,
        0.0004010200500488281
      ],
      "type": "VEC2"
    },
    {
      "bufferView": 1,
      "byteOffset": 4718304,
      "componentType": 5126,
      "count": 65532,
      "max": [
        0.9995989799499512,
        0.9995989799499512
      ],
      "min": [
        0.00040099999750964344,
        0.0004010200500488281
      ],
      "type": "VEC2"
    },
    {
      "bufferView": 1,
      "byteOffset": 5242560,
      "componentType": 5126,
      "count": 65532,
      "max": [
        0.9995989799499512,
        0.9995989799499512
      ],
      "min": [
        0.00040099999750964344,
        0.0004010200500488281
      ],
      "type": "VEC2"
    },
    {
      "bufferView": 1,
      "byteOffset": 5766816,
      "componentType": 5126,
      "count": 65532,
      "max": [
        0.9995989799499512,
        0.9995989799499512
      ],
      "min": [
        0.00040099999750964344,
        0.0004010200500488281
      ],
      "type": "VEC2"
    },
    {
      "bufferView": 0,
      "byteOffset": 2582676,
      "componentType": 5125,
      "count": 322632,
      "type": "SCALAR"
    },
    {
      "bufferView": 2,
      "byteOffset": 4718304,
      "componentType": 5126,
      "count": 65532,
      "max": [
        0.42781901359558105,
        0.24591399729251862,
        0.4227690100669861
      ],
      "min": [
        -0.42781901359558105,
        -0.24839000403881073,
        -0.41843900084495544
      ],
      "type": "VEC3"
    },
    {
      "bufferView": 2,
      "byteOffset": 5504688,
      "componentType": 5126,
      "count": 65532,
      "max": [
        0.9999809265136719,
        0.9999439120292664,
        1.0
      ],
      "min": [
        -0.9999784231185913,
        -0.9999716281890869,
        -0.9999992847442627
      ],
      "type": "VEC3"
    },
    {
      "bufferView": 1,
      "byteOffset": 6291072,
      "componentType": 5126,
      "count": 65532,
      "max": [
        0.9995989799499512,
        0.9995989799499512
      ],
      "min": [
        0.00040099999750964344,
        0.0004010200500488281
      ],
      "type": "VEC2"
    },
    {
      "bufferView": 1,
      "byteOffset": 6815328,
      "componentType": 5126,
      "count": 65532,
      "max": [
        0.9995989799499512,
        0.9995989799499512
      ],
      "min": [
        0.00040099999750964344,
        0.0004010200500488281
      ],
      "type": "VEC2"
    },
    {
      "bufferView": 1,
      "byteOffset": 7339584,
      "componentType": 5126,
      "count": 65532,
      "max": [
        0.9995989799499512,
        0.9995989799499512
      ],
      "min": [
        0.00040099999750964344,
        0.0004010200500488281
      ],
      "type": "VEC2"
    },
    {
      "bufferView": 1,
      "byteOffset": 7863840,
      "componentType": 5126,
      "count": 65532,
      "max": [
        0.9995989799499512,
        0.9995989799499512
      ],
      "min": [
        0.00040099999750964344,
        0.0004010200500488281
      ],
      "type": "VEC2"
    },
    {
      "bufferView": 0,
      "byteOffset": 3873204,
      "componentType": 5125,
      "count": 321156,
      "type": "SCALAR"
    },
    {
      "bufferView": 2,
      "byteOffset": 6291072,
      "componentType": 5126,
      "count": 46012,
      "max": [
        0.359140008687973,
        0.23482799530029297,
        0.4226149916648865
      ],
      "min": [
        -0.3609969913959503,
        -0.15222300589084625,
        -0.4246380031108856
      ],
      "type": "VEC3"
    },
    {
      "bufferView": 2,
      "byteOffset": 6843216,
      "componentType": 5126,
      "count": 46012,
      "max": [
        0.9999997615814209,
        0.9999822378158569,
        0.9999996423721313
      ],
      "min": [
        -0.9999724626541138,
        -0.9999932050704956,
        -0.9999971389770508
      ],
      "type": "VEC3"
    },
    {
      "bufferView": 1,
      "byteOffset": 8388096,
      "componentType": 5126,
      "count": 46012,
      "max": [
        0.9987969994544983,
        0.9995989799499512
      ],
      "min": [
        0.00040099999750964344,
        0.0004010200500488281
      ],
      "type": "VEC2"
    },
    {
      "bufferView": 1,
      "byteOffset": 8756192,
      "componentType": 5126,
      "count": 46012,
      "max": [
        0.9987969994544983,
        0.9995989799499512
      ],
      "min": [
        0.00040099999750964344,
        0.0004010200500488281
      ],
      "type": "VEC2"
    },
    {
      "bufferView": 1,
      "byteOffset": 9124288,
      "componentType": 5126,
      "count": 46012,
      "max": [
        0.9987969994544983,
        0.9995989799499512
      ],
      "min": [
        0.00040099999750964344,
        0.0004010200500488281
      ],
      "type": "VEC2"
    },
    {
      "bufferView": 1,
      "byteOffset": 9492384,
      "componentType": 5126,
      "count": 46012,
      "max": [
        0.9987969994544983,
        0.9995989799499512
      ],
      "min": [
        0.00040099999750964344,
        0.0004010200500488281
      ],
      "type": "VEC2"
    },
    {
      "bufferView": 0,
      "byteOffset": 5157828,
      "componentType": 5125,
      "count": 208155,
      "type": "SCALAR"
    },
    {
      "bufferView": 2,
      "byteOffset": 7395360,
      "componentType": 5126,
      "count": 1447,
      "max": [
        184.4722442626953,
        346.37554931640625,
        184.6890411376953
      ],
      "min": [
        -185.7532196044922,
        -0.3130951523780823,
        -179.72552490234375
      ],
      "type": "VEC3"
    },
    {
      "bufferView": 2,
      "byteOffset": 7412724,
      "componentType": 5126,
      "count": 1447,
      "max": [
        0.998920738697052,
        0.9997950196266174,
        0.9995130300521851
      ],
      "min": [
        -0.9986134171485901,
        -0.9999357461929321,
        -0.9994969964027405
      ],
      "type": "VEC3"
    },
    {
      "bufferView": 1,
      "byteOffset": 9860480,
      "componentType": 5126,
      "count": 1447,
      "max": [
        0.998247504234314,
        0.9973083734512329
      ],
      "min": [
        0.006592979654669762,
        0.001860976219177246
      ],
      "type": "VEC2"
    },
    {
      "bufferView": 0,
      "byteOffset": 5990448,
      "componentType": 5125,
      "count": 6048,
      "type": "SCALAR"
    },
    {
      "bufferView": 2,
      "byteOffset": 7430088,
      "componentType": 5126,
      "count": 1447,
      "max": [
        184.4722442626953,
        346.37554931640625,
        184.6890411376953
      ],
      "min": [
        -185.7532196044922,
        -0.3130951523780823,
        -179.72552490234375
      ],
      "type": "VEC3"
    },
    {
      "bufferView": 2,
      "byteOffset": 7447452,
      "componentType": 5126,
      "count": 1447,
      "max": [
        0.998920738697052,
        0.9997950196266174,
        0.9995130300521851
      ],
      "min": [
        -0.9986134171485901,
        -0.9999357461929321,
        -0.9994969964027405
      ],
      "type": "VEC3"
    },
    {
      "bufferView": 1,
      "byteOffset": 9872056,
      "componentType": 5126,
      "count": 1447,
      "max": [
        0.998247504234314,
        0.9973083734512329
      ],
      "min": [
        0.006592979654669762,
        0.001860976219177246
      ],
      "type": "VEC2"
    },
    {
      "bufferView": 0,
      "byteOffset": 6014640,
      "componentType": 5125,
      "count": 6048,
      "type": "SCALAR"
    },
    {
      "bufferView": 2,
      "byteOffset": 7464816,
      "componentType": 5126,
      "count": 1447,
      "max": [
        184.4722442626953,
        346.37554931640625,
        184.6890411376953
      ],
      "min": [
        -185.7532196044922,
        -0.3130951523780823,
        -179.72552490234375
      ],
      "type": "VEC3"
    },
    {
      "bufferView": 2,
      "byteOffset": 7482180,
      "componentType": 5126,
      "count": 1447,
      "max": [
        0.998920738697052,
        0.9997950196266174,
        0.9995130300521851
      ],
      "min": [
        -0.9986134171485901,
        -0.9999357461929321,
        -0.9994969964027405
      ],
      "type": "VEC3"
    },
    {
      "bufferView": 1,
      "byteOffset": 9883632,
      "componentType": 5126,
      "count": 1447,
      "max": [
        0.998247504234314,
        0.9973083734512329
      ],
      "min": [
        0.006592979654669762,
        0.001860976219177246
      ],
      "type": "VEC2"
    },
    {
      "bufferView": 0,
      "byteOffset": 6038832,
      "componentType": 5125,
      "count": 6048,
      "type": "SCALAR"
    },
    {
      "bufferView": 2,
      "byteOffset": 7499544,
      "componentType": 5126,
      "count": 1447,
      "max": [
        184.4722442626953,
        346.37554931640625,
        184.6890411376953
      ],
      "min": [
        -185.7532196044922,
        -0.3130951523780823,
        -179.72552490234375
      ],
      "type": "VEC3"
    },
    {
      "bufferView": 2,
      "byteOffset": 7516908,
      "componentType": 5126,
      "count": 1447,
      "max": [
        0.998920738697052,
        0.9997950196266174,
        0.9995130300521851
      ],
      "min": [
        -0.9986134171485901,
        -0.9999357461929321,
        -0.9994969964027405
      ],
      "type": "VEC3"
    },
    {
      "bufferView": 1,
      "byteOffset": 9895208,
      "componentType": 5126,
      "count": 1447,
      "max": [
        0.998247504234314,
        0.9973083734512329
      ],
      "min": [
        0.006592979654669762,
        0.001860976219177246
      ],
      "type": "VEC2"
    },
    {
      "bufferView": 0,
      "byteOffset": 6063024,
      "componentType": 5125,
      "count": 6048,
      "type": "SCALAR"
    },
    {
      "bufferView": 2,
      "byteOffset": 7534272,
      "componentType": 5126,
      "count": 1447,
      "max": [
        184.4722442626953,
        346.37554931640625,
        184.6890411376953
      ],
      "min": [
        -185.7532196044922,
        -0.3130951523780823,
        -179.72552490234375
      ],
      "type": "VEC3"
    },
    {
      "bufferView": 2,
      "byteOffset": 7551636,
      "componentType": 5126,
      "count": 1447,
      "max": [
        0.998920738697052,
        0.9997950196266174,
        0.9995130300521851
      ],
      "min": [
        -0.9986134171485901,
        -0.9999357461929321,
        -0.9994969964027405
      ],
      "type": "VEC3"
    },
    {
      "bufferView": 1,
      "byteOffset": 9906784,
      "componentType": 5126,
      "count": 1447,
      "max": [
        0.998247504234314,
        0.9973083734512329
      ],
      "min": [
        0.006592979654669762,
        0.001860976219177246
      ],
      "type": "VEC2"
    },
    {
      "bufferView": 0,
      "byteOffset": 6087216,
      "componentType": 5125,
      "count": 6048,
      "type": "SCALAR"
    },
    {
      "bufferView": 2,
      "byteOffset": 7569000,
      "componentType": 5126,
      "count": 1447,
      "max": [
        184.4722442626953,
        346.37554931640625,
        184.6890411376953
      ],
      "min": [
        -185.7532196044922,
        -0.3130951523780823,
        -179.72552490234375
      ],
      "type": "VEC3"
    },
    {
      "bufferView": 2,
      "byteOffset": 7586364,
      "componentType": 5126,
      "count": 1447,
      "max": [
        0.998920738697052,
        0.9997950196266174,
        0.9995130300521851
      ],
      "min": [
        -0.9986134171485901,
        -0.9999357461929321,
        -0.9994969964027405
      ],
      "type": "VEC3"
    },
    {
      "bufferView": 1,
      "byteOffset": 9918360,
      "componentType": 5126,
      "count": 1447,
      "max": [
        0.998247504234314,
        0.9973083734512329
      ],
      "min": [
        0.006592979654669762,
        0.001860976219177246
      ],
      "type": "VEC2"
    },
    {
      "bufferView": 0,
      "byteOffset": 6111408,
      "componentType": 5125,
      "count": 6048,
      "type": "SCALAR"
    },
    {
      "bufferView": 2,
      "byteOffset": 7603728,
      "componentType": 5126,
      "count": 1428,
      "max": [
        38.72248458862305,
        126.59416198730469,
        132.27255249023438
      ],
      "min": [
        -70.30218505859375,
        5.717662811279297,
        34.30380630493164
      ],
      "type": "VEC3"
    },
    {
      "bufferView": 2,
      "byteOffset": 7620864,
      "componentType": 5126,
      "count": 1428,
      "max": [
        0.9985458850860596,
        0.9996684193611145,
        0.9995974898338318
      ],
      "min": [
        -0.9997482299804688,
        -0.9996585249900818,
        -0.9984597563743591
      ],
      "type": "VEC3"
    },
    {
      "bufferView": 1,
      "byteOffset": 9929936,
      "componentType": 5126,
      "count": 1428,
      "max": [
        0.8044857382774353,
        0.9973885416984558
      ],
      "min": [
        0.3799017369747162,
        0.20869207382202148
      ],
      "type": "VEC2"
    },
    {
      "bufferView": 0,
      "byteOffset": 6135600,
      "componentType": 5125,
      "count": 5664,
      "type": "SCALAR"
    },
    {
      "bufferView": 2,
      "byteOffset": 7638000,
      "componentType": 5126,
      "count": 1428,
      "max": [
        38.72248458862305,
        126.59416198730469,
        132.27255249023438
      ],
      "min": [
        -70.30218505859375,
        5.717662811279297,
        34.30380630493164
      ],
      "type": "VEC3"
    },
    {
      "bufferView": 2,
      "byteOffset": 7655136,
      "componentType": 5126,
      "count": 1428,
      "max": [
        0.9985458850860596,
        0.9996684193611145,
        0.9995974898338318
      ],
      "min": [
        -0.9997482299804688,
        -0.9996585249900818,
        -0.9984597563743591
      ],
      "type": "VEC3"
    },
    {
      "bufferView": 1,
      "byteOffset": 9941360,
      "componentType": 5126,
      "count": 1428,
      "max": [
        0.8044857382774353,
        0.9973885416984558
      ],
      "min": [
        0.3799017369747162,
        0.20869207382202148
      ],
      "type": "VEC2"
    },
    {
      "bufferView": 0,
      "byteOffset": 6158256,
      "componentType": 5125,
      "count": 5664,
      "type": "SCALAR"
    },
    {
      "bufferView": 2,
      "byteOffset": 7672272,
      "componentType": 5126,
      "count": 1428,
      "max": [
        38.72248458862305,
        126.59416198730469,
        132.27255249023438
      ],
      "min": [
        -70.30218505859375,
        5.717662811279297,
        34.30380630493164
      ],
      "type": "VEC3"
    },
    {
      "bufferView": 2,
      "byteOffset": 7689408,
      "componentType": 5126,
      "count": 1428,
      "max": [
        0.9985458850860596,
        0.9996684193611145,
        0.9995974898338318
      ],
      "min": [
        -0.9997482299804688,
        -0.9996585249900818,
        -0.9984597563743591
      ],
      "type": "VEC3"
    },
    {
      "bufferView": 1,
      "byteOffset": 9952784,
      "componentType": 5126,
      "count": 1428,
      "max": [
        0.8044857382774353,
        0.9973885416984558
      ],
      "min": [
        0.3799017369747162,
        0.20869207382202148
      ],
      "type": "VEC2"
    },
    {
      "bufferView": 0,
      "byteOffset": 6180912,
      "componentType": 5125,
      "count": 5664,
      "type": "SCALAR"
    },
    {
      "bufferView": 2,
      "byteOffset": 7706544,
      "componentType": 5126,
      "count": 1428,
      "max": [
        38.72248458862305,
        126.59416198730469,
        132.27255249023438
      ],
      "min": [
        -70.30218505859375,
        5.717662811279297,
        34.30380630493164
      ],
      "type": "VEC3"
    },
    {
      "bufferView": 2,
      "byteOffset": 7723680,
      "componentType": 5126,
      "count": 1428,
      "max": [
        0.9985458850860596,
        0.9996684193611145,
        0.9995974898338318
      ],
      "min": [
        -0.9997482299804688,
        -0.9996585249900818,
        -0.9984597563743591
      ],
      "type": "VEC3"
    },
    {
      "bufferView": 1,
      "byteOffset": 9964208,
      "componentType": 5126,
      "count": 1428,
      "max": [
        0.8044857382774353,
        0.9973885416984558
      ],
      "min": [
        0.3799017369747162,
        0.20869207382202148
      ],
      "type": "VEC2"
    },
    {
      "bufferView": 0,
      "byteOffset": 6203568,
      "componentType": 5125,
      "count": 5664,
      "type": "SCALAR"
    },
    {
      "bufferView": 2,
      "byteOffset": 7740816,
      "componentType": 5126,
      "count": 1428,
      "max": [
        38.72248458862305,
        126.59416198730469,
        132.27255249023438
      ],
      "min": [
        -70.30218505859375,
        5.717662811279297,
        34.30380630493164
      ],
      "type": "VEC3"
    },
    {
      "bufferView": 2,
      "byteOffset": 7757952,
      "componentType": 5126,
      "count": 1428,
      "max": [
        0.9985458850860596,
        0.9996684193611145,
        0.9995974898338318
      ],
      "min": [
        -0.9997482299804688,
        -0.9996585249900818,
        -0.9984597563743591
      ],
      "type": "VEC3"
    },
    {
      "bufferView": 1,
      "byteOffset": 9975632,
      "componentType": 5126,
      "count": 1428,
      "max": [
        0.8044857382774353,
        0.9973885416984558
      ],
      "min": [
        0.3799017369747162,
        0.20869207382202148
      ],
      "type": "VEC2"
    },
    {
      "bufferView": 0,
      "byteOffset": 6226224,
      "componentType": 5125,
      "count": 5664,
      "type": "SCALAR"
    },
    {
      "bufferView": 2,
      "byteOffset": 7775088,
      "componentType": 5126,
      "count": 1428,
      "max": [
        38.72248458862305,
        126.59416198730469,
        132.27255249023438
      ],
      "min": [
        -70.30218505859375,
        5.717662811279297,
        34.30380630493164
      ],
      "type": "VEC3"
    },
    {
      "bufferView": 2,
      "byteOffset": 7792224,
      "componentType": 5126,
      "count": 1428,
      "max": [
        0.9985458850860596,
        0.9996684193611145,
        0.9995974898338318
      ],
      "min": [
        -0.9997482299804688,
        -0.9996585249900818,
        -0.9984597563743591
      ],
      "type": "VEC3"
    },
    {
      "bufferView": 1,
      "byteOffset": 9987056,
      "componentType": 5126,
      "count": 1428,
      "max": [
        0.8044857382774353,
        0.9973885416984558
      ],
      "min": [
        0.3799017369747162,
        0.20869207382202148
      ],
      "type": "VEC2"
    },
    {
      "bufferView": 0,
      "byteOffset": 6248880,
      "componentType": 5125,
      "count": 5664,
      "type": "SCALAR"
    },
    {
      "bufferView": 2,
      "byteOffset": 7809360,
      "componentType": 5126,
      "count": 772,
      "max": [
        47.70113754272461,
        68.58549499511719,
        -35.67137908935547
      ],
      "min": [
        10.352313995361328,
        4.6601948738098145,
        -74.46646118164063
      ],
      "type": "VEC3"
    },
    {
      "bufferView": 2,
      "byteOffset": 7818624,
      "componentType": 5126,
      "count": 772,
      "max": [
        0.9981280565261841,
        0.9913768172264099,
        0.9982264041900635
      ],
      "min": [
        -0.998921811580658,
        -0.9524032473564148,
        -0.9988380074501038
      ],
      "type": "VEC3"
    },
    {
      "bufferView": 1,
      "byteOffset": 9998480,
      "componentType": 5126,
      "count": 772,
      "max": [
        0.7984333038330078,
        0.7063695192337036
      ],
      "min": [
        0.3785911202430725,
        0.011770546436309814
      ],
      "type": "VEC2"
    },
    {
      "bufferView": 0,
      "byteOffset": 6271536,
      "componentType": 5125,
      "count": 2976,
      "type": "SCALAR"
    },
    {
      "bufferView": 2,
      "byteOffset": 7827888,
      "componentType": 5126,
      "count": 772,
      "max": [
        47.70113754272461,
        68.58549499511719,
        -35.67137908935547
      ],
      "min": [
        10.352313995361328,
        4.6601948738098145,
        -74.46646118164063
      ],
      "type": "VEC3"
    },
    {
      "bufferView": 2,
      "byteOffset": 7837152,
      "componentType": 5126,
      "count": 772,
      "max": [
        0.9981280565261841,
        0.9913768172264099,
        0.9982264041900635
      ],
      "min": [
        -0.998921811580658,
        -0.9524032473564148,
        -0.9988380074501038
      ],
      "type": "VEC3"
    },
    {
      "bufferView": 1,
      "byteOffset": 10004656,
      "componentType": 5126,
      "count": 772,
      "max": [
        0.7984333038330078,
        0.7063695192337036
      ],
      "min": [
        0.3785911202430725,
        0.011770546436309814
      ],
      "type": "VEC2"
    },
    {
      "bufferView": 0,
      "byteOffset": 6283440,
      "componentType": 5125,
      "count": 2976,
      "type": "SCALAR"
    },
    {
      "bufferView": 2,
      "byteOffset": 7846416,
      "componentType": 5126,
      "count": 589,
      "max": [
        45.55845642089844,
        62.27870178222656,
        -76.88727569580078
      ],
      "min": [
        8.787117004394531,
        1.803222894668579,
        -112.52764129638672
      ],
      "type": "VEC3"
    },
    {
      "bufferView": 2,
      "byteOffset": 7853484,
      "componentType": 5126,
      "count": 589,
      "max": [
        0.994616687297821,
        0.9636041522026062,
        0.9955207109451294
      ],
      "min": [
        -0.9981971383094788,
        -0.9992515444755554,
        -0.9897823929786682
      ],
      "type": "VEC3"
    },
    {
      "bufferView": 1,
      "byteOffset": 10010832,
      "componentType": 5126,
      "count": 589,
      "max": [
        0.7984331846237183,
        0.7063695192337036
      ],
      "min": [
        0.3785911202430725,
        0.011770546436309814
      ],
      "type": "VEC2"
    },
    {
      "bufferView": 0,
      "byteOffset": 6295344,
      "componentType": 5125,
      "count": 2976,
      "type": "SCALAR"
    },
    {
      "bufferView": 2,
      "byteOffset": 7860552,
      "componentType": 5126,
      "count": 589,
      "max": [
        45.55845642089844,
        62.27870178222656,
        -76.88727569580078
      ],
      "min": [
        8.787117004394531,
        1.803222894668579,
        -112.52764129638672
      ],
      "type": "VEC3"
    },
    {
      "bufferView": 2,
      "byteOffset": 7867620,
      "componentType": 5126,
      "count": 589,
      "max": [
        0.994616687297821,
        0.9636041522026062,
        0.9955207109451294
      ],
      "min": [
        -0.9981971383094788,
        -0.9992515444755554,
        -0.9897823929786682
      ],
      "type": "VEC3"
    },
    {
      "bufferView": 1,
      "byteOffset": 10015544,
      "componentType": 5126,
      "count": 589,
      "max": [
        0.7984331846237183,
        0.7063695192337036
      ],
      "min": [
        0.3785911202430725,
        0.011770546436309814
      ],
      "type": "VEC2"
    },
    {
      "bufferView": 0,
      "byteOffset": 6307248,
      "componentType": 5125,
      "count": 2976,
      "type": "SCALAR"
    },
    {
      "bufferView": 2,
      "byteOffset": 7874688,
      "componentType": 5126,
      "count": 273,
      "max": [
        40.86800003051758,
        34.25442123413086,
        -63.2920036315918
      ],
      "min": [
        31.609827041625977,
        6.242741107940674,
        -71.71672821044922
      ],
      "type": "VEC3"
    },
    {
      "bufferView": 2,
      "byteOffset": 7877964,
      "componentType": 5126,
      "count": 273,
      "max": [
        0.9939810633659363,
        0.965308666229248,
        0.9750547409057617
      ],
      "min": [
        -0.9939810633659363,
        -0.9653058052062988,
        -0.9750358462333679
      ],
      "type": "VEC3"
    },
    {
      "bufferView": 1,
      "byteOffset": 10020256,
      "componentType": 5126,
      "count": 273,
      "max": [
        0.6183245778083801,
        0.4882621765136719
      ],
      "min": [
        0.5127114653587341,
        0.40089720487594604
      ],
      "type": "VEC2"
    },
    {
      "bufferView": 0,
      "byteOffset": 6319152,
      "componentType": 5125,
      "count": 840,
      "type": "SCALAR"
    },
    {
      "bufferView": 2,
      "byteOffset": 7881240,
      "componentType": 5126,
      "count": 273,
      "max": [
        40.86800003051758,
        34.25442123413086,
        -63.2920036315918
      ],
      "min": [
        31.609827041625977,
        6.242741107940674,
        -71.71672821044922
      ],
      "type": "VEC3"
    },
    {
      "bufferView": 2,
      "byteOffset": 7884516,
      "componentType": 5126,
      "count": 273,
      "max": [
        0.9939810633659363,
        0.965308666229248,
        0.9750547409057617
      ],
      "min": [
        -0.9939810633659363,
        -0.9653058052062988,
        -0.9750358462333679
      ],
      "type": "VEC3"
    },
    {
      "bufferView": 1,
      "byteOffset": 10022440,
      "componentType": 5126,
      "count": 273,
      "max": [
        0.6183245778083801,
        0.4882621765136719
      ],
      "min": [
        0.5127114653587341,
        0.40089720487594604
      ],
      "type": "VEC2"
    },
    {
      "bufferView": 0,
      "byteOffset": 6322512,
      "componentType": 5125,
      "count": 840,
      "type": "SCALAR"
    },
    {
      "bufferView": 2,
      "byteOffset": 7887792,
      "componentType": 5126,
      "count": 266,
      "max": [
        42.462520599365234,
        22.53645896911621,
        -60.63833236694336
      ],
      "min": [
        32.725868225097656,
        3.253702163696289,
        -65.07403564453125
      ],
      "type": "VEC3"
    },
    {
      "bufferView": 2,
      "byteOffset": 7890984,
      "componentType": 5126,
      "count": 266,
      "max": [
        0.9802202582359314,
        0.9840072989463806,
        0.9916998744010925
      ],
      "min": [
        -0.9802367687225342,
        -0.9840072989463806,
        -0.9916998744010925
      ],
      "type": "VEC3"
    },
    {
      "bufferView": 1,
      "byteOffset": 10024624,
      "componentType": 5126,
      "count": 266,
      "max": [
        0.6183245778083801,
        0.4882621765136719
      ],
      "min": [
        0.5127114653587341,
        0.40089720487594604
      ],
      "type": "VEC2"
    },
    {
      "bufferView": 0,
      "byteOffset": 6325872,
      "componentType": 5125,
      "count": 840,
      "type": "SCALAR"
    },
    {
      "bufferView": 2,
      "byteOffset": 7894176,
      "componentType": 5126,
      "count": 266,
      "max": [
        42.462520599365234,
        22.53645896911621,
        -60.63833236694336
      ],
      "min": [
        32.725868225097656,
        3.253702163696289,
        -65.07403564453125
      ],
      "type": "VEC3"
    },
    {
      "bufferView": 2,
      "byteOffset": 7897368,
      "componentType": 5126,
      "count": 266,
      "max": [
        0.9802202582359314,
        0.9840072989463806,
        0.9916998744010925
      ],
      "min": [
        -0.9802367687225342,
        -0.9840072989463806,
        -0.9916998744010925
      ],
      "type": "VEC3"
    },
    {
      "bufferView": 1,
      "byteOffset": 10026752,
      "componentType": 5126,
      "count": 266,
      "max": [
        0.6183245778083801,
        0.4882621765136719
      ],
      "min": [
        0.5127114653587341,
        0.40089720487594604
      ],
      "type": "VEC2"
    },
    {
      "bufferView": 0,
      "byteOffset": 6329232,
      "componentType": 5125,
      "count": 840,
      "type": "SCALAR"
    },
    {
      "bufferView": 2,
      "byteOffset": 7900560,
      "componentType": 5126,
      "count": 271,
      "max": [
        20.293426513671875,
        31.433313369750977,
        57.060508728027344
      ],
      "min": [
        12.625564575195313,
        -3.6380627155303955,
        47.143798828125
      ],
      "type": "VEC3"
    },
    {
      "bufferView": 2,
      "byteOffset": 7903812,
      "componentType": 5126,
      "count": 271,
      "max": [
        0.9899811148643494,
        0.9879662990570068,
        0.9897810816764832
      ],
      "min": [
        -0.9909085631370544,
        -0.9879662990570068,
        -0.9894973635673523
      ],
      "type": "VEC3"
    },
    {
      "bufferView": 1,
      "byteOffset": 10028880,
      "componentType": 5126,
      "count": 271,
      "max": [
        0.6183245778083801,
        0.4882621765136719
      ],
      "min": [
        0.5127114653587341,
        0.40089720487594604
      ],
      "type": "VEC2"
    },
    {
      "bufferView": 0,
      "byteOffset": 6332592,
      "componentType": 5125,
      "count": 840,
      "type": "SCALAR"
    },
    {
      "bufferView": 2,
      "byteOffset": 7907064,
      "componentType": 5126,
      "count": 271,
      "max": [
        20.293426513671875,
        31.433313369750977,
        57.060508728027344
      ],
      "min": [
        12.625564575195313,
        -3.6380627155303955,
        47.143798828125
      ],
      "type": "VEC3"
    },
    {
      "bufferView": 2,
      "byteOffset": 7910316,
      "componentType": 5126,
      "count": 271,
      "max": [
        0.9899811148643494,
        0.9879662990570068,
        0.9897810816764832
      ],
      "min": [
        -0.9909085631370544,
        -0.9879662990570068,
        -0.9894973635673523
      ],
      "type": "VEC3"
    },
    {
      "bufferView": 1,
      "byteOffset": 10031048,
      "componentType": 5126,
      "count": 271,
      "max": [
        0.6183245778083801,
        0.4882621765136719
      ],
      "min": [
        0.5127114653587341,
        0.40089720487594604
      ],
      "type": "VEC2"
    },
    {
      "bufferView": 0,
      "byteOffset": 6335952,
      "componentType": 5125,
      "count": 840,
      "type": "SCALAR"
    },
    {
      "bufferView": 2,
      "byteOffset": 7913568,
      "componentType": 5126,
      "count": 271,
      "max": [
        23.183969497680664,
        24.800249099731445,
        50.226593017578125
      ],
      "min": [
        13.45224666595459,
        -4.429528713226318,
        39.593605041503906
      ],
      "type": "VEC3"
    },
    {
      "bufferView": 2,
      "byteOffset": 7916820,
      "componentType": 5126,
      "count": 271,
      "max": [
        0.972119152545929,
        0.9714924693107605,
        0.9815047383308411
      ],
      "min": [
        -0.972119152545929,
        -0.9714924693107605,
        -0.9860671162605286
      ],
      "type": "VEC3"
    },
    {
      "bufferView": 1,
      "byteOffset": 10033216,
      "componentType": 5126,
      "count": 271,
      "max": [
        0.6183245778083801,
        0.4882621765136719
      ],
      "min": [
        0.5127114653587341,
        0.40089720487594604
      ],
      "type": "VEC2"
    },
    {
      "bufferView": 0,
      "byteOffset": 6339312,
      "componentType": 5125,
      "count": 840,
      "type": "SCALAR"
    },
    {
      "bufferView": 2,
      "byteOffset": 7920072,
      "componentType": 5126,
      "count": 271,
      "max": [
        23.183969497680664,
        24.800249099731445,
        50.226593017578125
      ],
      "min": [
        13.45224666595459,
        -4.429528713226318,
        39.593605041503906
      ],
      "type": "VEC3"
    },
    {
      "bufferView": 2,
      "byteOffset": 7923324,
      "componentType": 5126,
      "count": 271,
      "max": [
        0.972119152545929,
        0.9714924693107605,
        0.9815047383308411
      ],
      "min": [
        -0.972119152545929,
        -0.9714924693107605,
        -0.9860671162605286
      ],
      "type": "VEC3"
    },
    {
      "bufferView": 1,
      "byteOffset": 10035384,
      "componentType": 5126,
      "count": 271,
      "max": [
        0.6183245778083801,
        0.4882621765136719
      ],
      "min": [
        0.5127114653587341,
        0.40089720487594604
      ],
      "type": "VEC2"
    },
    {
      "bufferView": 0,
      "byteOffset": 6342672,
      "componentType": 5125,
      "count": 840,
      "type": "SCALAR"
    },
    {
      "bufferView": 2,
      "byteOffset": 7926576,
      "componentType": 5126,
      "count": 270,
      "max": [
        44.97297286987305,
        34.9705924987793,
        -32.92829513549805
      ],
      "min": [
        29.08586883544922,
        1.398276925086975,
        -41.390567779541016
      ],
      "type": "VEC3"
    },
    {
      "bufferView": 2,
      "byteOffset": 7929816,
      "componentType": 5126,
      "count": 270,
      "max": [
        0.9648374915122986,
        0.9826638102531433,
        0.9995008707046509
      ],
      "min": [
        -0.9648374915122986,
        -0.9826638102531433,
        -0.9993703365325928
      ],
      "type": "VEC3"
    },
    {
      "bufferView": 1,
      "byteOffset": 10037552,
      "componentType": 5126,
      "count": 270,
      "max": [
        0.6183245778083801,
        0.4882621765136719
      ],
      "min": [
        0.5127114653587341,
        0.40089720487594604
      ],
      "type": "VEC2"
    },
    {
      "bufferView": 0,
      "byteOffset": 6346032,
      "componentType": 5125,
      "count": 840,
      "type": "SCALAR"
    },
    {
      "bufferView": 2,
      "byteOffset": 7933056,
      "componentType": 5126,
      "count": 270,
      "max": [
        44.97297286987305,
        34.9705924987793,
        -32.92829513549805
      ],
      "min": [
        29.08586883544922,
        1.398276925086975,
        -41.390567779541016
      ],
      "type": "VEC3"
    },
    {
      "bufferView": 2,
      "byteOffset": 7936296,
      "componentType": 5126,
      "count": 270,
      "max": [
        0.9648374915122986,
        0.9826638102531433,
        0.9995008707046509
      ],
      "min": [
        -0.9648374915122986,
        -0.9826638102531433,
        -0.9993703365325928
      ],
      "type": "VEC3"
    },
    {
      "bufferView": 1,
      "byteOffset": 10039712,
      "componentType": 5126,
      "count": 270,
      "max": [
        0.6183245778083801,
        0.4882621765136719
      ],
      "min": [
        0.5127114653587341,
        0.40089720487594604
      ],
      "type": "VEC2"
    },
    {
      "bufferView": 0,
      "byteOffset": 6349392,
      "componentType": 5125,
      "count": 840,
      "type": "SCALAR"
    },
    {
      "bufferView": 2,
      "byteOffset": 7939536,
      "componentType": 5126,
      "count": 226,
      "max": [
        241.3225860595703,
        13.440020561218262,
        249.07150268554688
      ],
      "min": [
        -298.8139953613281,
        -70.51876068115234,
        -249.9676055908203
      ],
      "type": "VEC3"
    },
    {
      "bufferView": 2,
      "byteOffset": 7942248,
      "componentType": 5126,
      "count": 226,
      "max": [
        0.734016478061676,
        0.9998492002487183,
        0.7570982575416565
      ],
      "min": [
        -0.7096884250640869,
        0.5208893418312073,
        -0.848982572555542
      ],
      "type": "VEC3"
    },
    {
      "bufferView": 1,
      "byteOffset": 10041872,
      "componentType": 5126,
      "count": 226,
      "max": [
        1.970426082611084,
        0.9585309624671936
      ],
      "min": [
        1.0917288064956665,
        0.03945648670196533
      ],
      "type": "VEC2"
    },
    {
      "bufferView": 0,
      "byteOffset": 6352752,
      "componentType": 5125,
      "count": 1152,
      "type": "SCALAR"
    },
    {
      "bufferView": 2,
      "byteOffset": 7944960,
      "componentType": 5126,
      "count": 78,
      "max": [
        -13.836195945739746,
        51.8099365234375,
        153.83682250976563
      ],
      "min": [
        -90.73405456542969,
        -10.154017448425293,
        81.51393127441406
      ],
      "type": "VEC3"
    },
    {
      "bufferView": 2,
      "byteOffset": 7945896,
      "componentType": 5126,
      "count": 78,
      "max": [
        0.3661123812198639,
        0.984066903591156,
        0.9976557493209839
      ],
      "min": [
        -0.7262052893638611,
        -0.9246789813041687,
        -0.8631410598754883
      ],
      "type": "VEC3"
    },
    {
      "bufferView": 1,
      "byteOffset": 10043680,
      "componentType": 5126,
      "count": 78,
      "max": [
        0.7266296148300171,
        0.5603093504905701
      ],
      "min": [
        0.6476262807846069,
        0.38201063871383667
      ],
      "type": "VEC2"
    },
    {
      "bufferView": 0,
      "byteOffset": 6357360,
      "componentType": 5125,
      "count": 252,
      "type": "SCALAR"
    },
    {
      "bufferView": 2,
      "byteOffset": 7946832,
      "componentType": 5126,
      "count": 78,
      "max": [
        -13.836195945739746,
        51.8099365234375,
        153.83682250976563
      ],
      "min": [
        -90.73405456542969,
        -10.154017448425293,
        81.51393127441406
      ],
      "type": "VEC3"
    },
    {
      "bufferView": 2,
      "byteOffset": 7947768,
      "componentType": 5126,
      "count": 78,
      "max": [
        0.3661123812198639,
        0.984066903591156,
        0.9976557493209839
      ],
      "min": [
        -0.7262052893638611,
        -0.9246789813041687,
        -0.8631410598754883
      ],
      "type": "VEC3"
    },
    {
      "bufferView": 1,
      "byteOffset": 10044304,
      "componentType": 5126,
      "count": 78,
      "max": [
        0.7266296148300171,
        0.5603093504905701
      ],
      "min": [
        0.6476262807846069,
        0.38201063871383667
      ],
      "type": "VEC2"
    },
    {
      "bufferView": 0,
      "byteOffset": 6358368,
      "componentType": 5125,
      "count": 252,
      "type": "SCALAR"
    },
    {
      "bufferView": 2,
      "byteOffset": 7948704,
      "componentType": 5126,
      "count": 78,
      "max": [
        -12.237000465393066,
        96.27642822265625,
        -87.058349609375
      ],
      "min": [
        -153.62518310546875,
        -22.925745010375977,
        -230.05380249023438
      ],
      "type": "VEC3"
    },
    {
      "bufferView": 2,
      "byteOffset": 7949640,
      "componentType": 5126,
      "count": 78,
      "max": [
        0.8458224534988403,
        0.9939937591552734,
        0.6915125846862793
      ],
      "min": [
        -0.47570866346359253,
        -0.10359647125005722,
        -0.9858168363571167
      ],
      "type": "VEC3"
    },
    {
      "bufferView": 1,
      "byteOffset": 10044928,
      "componentType": 5126,
      "count": 78,
      "max": [
        0.7266296148300171,
        0.5602285265922546
      ],
      "min": [
        0.6476449966430664,
        0.3821484446525574
      ],
      "type": "VEC2"
    },
    {
      "bufferView": 0,
      "byteOffset": 6359376,
      "componentType": 5125,
      "count": 252,
      "type": "SCALAR"
    },
    {
      "bufferView": 2,
      "byteOffset": 7950576,
      "componentType": 5126,
      "count": 300,
      "max": [
        263.5279541015625,
        224.54029846191406,
        314.7142028808594
      ],
      "min": [
        -319.6537170410156,
        0.07196298986673355,
        -283.8988037109375
      ],
      "type": "VEC3"
    },
    {
      "bufferView": 2,
      "byteOffset": 7954176,
      "componentType": 5126,
      "count": 300,
      "max": [
        1.0,
        1.0,
        0.0
      ],
      "min": [
        0.0,
        0.0,
        -1.0
      ],
      "type": "VEC3"
    },
    {
      "bufferView": 1,
      "byteOffset": 10045552,
      "componentType": 5126,
      "count": 300,
      "max": [
        1.1722065210342407,
        0.15942561626434326
      ],
      "min": [
        1.0242174863815308,
        0.021542370319366455
      ],
      "type": "VEC2"
    },
    {
      "bufferView": 0,
      "byteOffset": 6360384,
      "componentType": 5125,
      "count": 450,
      "type": "SCALAR"
    }
  ],
  "asset": {
    "extras": {
      "author": "vmmaniac (https://sketchfab.com/vmmaniac)",
      "license": "CC-BY-4.0 (http://creativecommons.org/licenses/by/4.0/)",
      "source": "https://sketchfab.com/3d-models/arbol-magico-7a6417f5d12c40cdb258cc167802ad1f",
      "title": "Arbol mágico"
    },
    "generator": "Sketchfab-16.75.0",
    "version": "2.0"
  },
  "bufferViews": [
    {
      "buffer": 0,
      "byteLength": 6362184,
      "name": "floatBufferViews",
      "target": 34963
    },
    {
      "buffer": 0,
      "byteLength": 10047952,
      "byteOffset": 6362184,
      "byteStride": 8,
      "name": "floatBufferViews",
      "target": 34962
    },
    {
      "buffer": 0,
      "byteLength": 7957776,
      "byteOffset": 16410136,
      "byteStride": 12,
      "name": "floatBufferViews",
      "target": 34962
    }
  ],
  "buffers": [
    {
      "byteLength": 24367912,
      "uri": "scene.bin"
    }
  ],
  "extensionsUsed": [
    "KHR_materials_specular",
    "KHR_materials_emissive_strength"
  ],
  "images": [
    {
      "uri": "textures/Material.008_baseColor.png"
    },
    {
      "uri": "textures/Material.008_metallicRoughness.png"
    },
    {
      "uri": "textures/mushroms_baseColor.png"
    },
    {
      "uri": "textures/ground_baseColor.png"
    }
  ],
  "materials": [
    {
      "doubleSided": true,
      "extensions": {
        "KHR_materials_specular": {
          "specularColorFactor": [
            1.0,
            1.0,
            1.0
          ],
          "specularFactor": 0.027594325303840955
        }
      },
      "name": "Material.008",
      "pbrMetallicRoughness": {
        "baseColorTexture": {
          "index": 0
        },
        "metallicFactor": 0.6047427457244015,
        "metallicRoughnessTexture": {
          "index": 1,
          "texCoord": 1
        },
        "roughnessFactor": 0.4240195029664482
      }
    },
    {
      "doubleSided": true,
      "name": "mushroms",
      "pbrMetallicRoughness": {
        "baseColorTexture": {
          "index": 2
        },
        "metallicFactor": 0.0,
        "roughnessFactor": 0.9
      }
    },
    {
      "alphaMode": "BLEND",
      "emissiveFactor": [
        0.7552438675387408,
        0.8416879776582608,
        0.0
      ],
      "extensions": {
        "KHR_materials_emissive_strength": {
          "emissiveStrength": 5.697640535777008
        },
        "KHR_materials_specular": {
          "specularColorFactor": [
            1.0,
            1.0,
            1.0
          ],
          "specularFactor": 0.29576429842854585
        }
      },
      "name": "ground",
      "pbrMetallicRoughness": {
        "baseColorTexture": {
          "index": 3
        },
        "roughnessFactor": 0.6688703479933527
      }
    }
  ],
  "meshes": [
    {
      "name": "Object_0",
      "primitives": [
        {
          "attributes": {
            "NORMAL": 1,
            "POSITION": 0,
            "TEXCOORD_0": 2,
            "TEXCOORD_1": 3,
            "TEXCOORD_2": 4,
            "TEXCOORD_3": 5
          },
          "indices": 6,
          "material": 0,
          "mode": 4
        }
      ]
    },
    {
      "name": "Object_1",
      "primitives": [
        {
          "attributes": {
            "NORMAL": 8,
            "POSITION": 7,
            "TEXCOORD_0": 9,
            "TEXCOORD_1": 10,
            "TEXCOORD_2": 11,
            "TEXCOORD_3": 12
          },
          "indices": 13,
          "material": 0,
          "mode": 4
        }
      ]
    },
    {
      "name": "Object_2",
      "primitives": [
        {
          "attributes": {
            "NORMAL": 15,
            "POSITION": 14,
            "TEXCOORD_0": 16,
            "TEXCOORD_1": 17,
            "TEXCOORD_2": 18,
            "TEXCOORD_3": 19
          },
          "indices": 20,
          "material": 0,
          "mode": 4
        }
      ]
    },
    {
      "name": "Object_3",
      "primitives": [
        {
          "attributes": {
            "NORMAL": 22,
            "POSITION": 21,
            "TEXCOORD_0": 23,
            "TEXCOORD_1": 24,
            "TEXCOORD_2": 25,
            "TEXCOORD_3": 26
          },
          "indices": 27,
          "material": 0,
          "mode": 4
        }
      ]
    },
    {
      "name": "Object_4",
      "primitives": [
        {
          "attributes": {
            "NORMAL": 29,
            "POSITION": 28,
            "TEXCOORD_0": 30,
            "TEXCOORD_1": 31,
            "TEXCOORD_2": 32,
            "TEXCOORD_3": 33
          },
          "indices": 34,
          "material": 0,
          "mode": 4
        }
      ]
    },
    {
      "name": "Object_5",
      "primitives": [
        {
          "attributes": {
            "NORMAL": 36,
            "POSITION": 35,
            "TEXCOORD_0": 37
          },
          "indices": 38,
          "material": 1,
          "mode": 4
        }
      ]
    },
    {
      "name": "Object_6",
      "primitives": [
        {
          "attributes": {
            "NORMAL": 40,
            "POSITION": 39,
            "TEXCOORD_0": 41
          },
          "indices": 42,
          "material": 1,
          "mode": 4
        }
      ]
    },
    {
      "name": "Object_7",
      "primitives": [
        {
          "attributes": {
            "NORMAL": 44,
            "POSITION": 43,
            "TEXCOORD_0": 45
          },
          "indices": 46,
          "material": 1,
          "mode": 4
        }
      ]
    },
    {
      "name": "Object_8",
      "primitives": [
        {
          "attributes": {
            "NORMAL": 48,
            "POSITION": 47,
            "TEXCOORD_0": 49
          },
          "indices": 50,
          "material": 1,
          "mode": 4
        }
      ]
    },
    {
      "name": "Object_9",
      "primitives": [
        {
          "attributes": {
            "NORMAL": 52,
            "POSITION": 51,
            "TEXCOORD_0": 53
          },
          "indices": 54,
          "material": 1,
          "mode": 4
        }
      ]
    },
    {
      "name": "Object_10",
      "primitives": [
        {
          "attributes": {
            "NORMAL": 56,
            "POSITION": 55,
            "TEXCOORD_0": 57
          },
          "indices": 58,
          "material": 1,
          "mode": 4
        }
      ]
    },
    {
      "name": "Object_11",
      "primitives": [
        {
          "attributes": {
            "NORMAL": 60,
            "POSITION": 59,
            "TEXCOORD_0": 61
          },
          "indices": 62,
          "material": 1,
          "mode": 4
        }
      ]
    },
    {
      "name": "Object_12",
      "primitives": [
        {
          "attributes": {
            "NORMAL": 64,
            "POSITION": 63,
            "TEXCOORD_0": 65
          },
          "indices": 66,
          "material": 1,
          "mode": 4
        }
      ]
    },
    {
      "name": "Object_13",
      "primitives": [
        {
          "attributes": {
            "NORMAL": 68,
            "POSITION": 67,
            "TEXCOORD_0": 69
          },
          "indices": 70,
          "material": 1,
          "mode": 4
        }
      ]
    },
    {
      "name": "Object_14",
      "primitives": [
        {
          "attributes": {
            "NORMAL": 72,
            "POSITION": 71,
            "TEXCOORD_0": 73
          },
          "indices": 74,
          "material": 1,
          "mode": 4
        }
      ]
    },
    {
      "name": "Object_15",
      "primitives": [
        {
          "attributes": {
            "NORMAL": 76,
            "POSITION": 75,
            "TEXCOORD_0": 77
          },
          "indices": 78,
          "material": 1,
          "mode": 4
        }
      ]
    },
    {
      "name": "Object_16",
      "primitives": [
        {
          "attributes": {
            "NORMAL": 80,
            "POSITION": 79,
            "TEXCOORD_0": 81
          },
          "indices": 82,
          "material": 1,
          "mode": 4
        }
      ]
    },
    {
      "name": "Object_17",
      "primitives": [
        {
          "attributes": {
            "NORMAL": 84,
            "POSITION": 83,
            "TEXCOORD_0": 85
          },
          "indices": 86,
          "material": 1,
          "mode": 4
        }
      ]
    },
    {
      "name": "Object_18",
      "primitives": [
        {
          "attributes": {
            "NORMAL": 88,
            "POSITION": 87,
            "TEXCOORD_0": 89
          },
          "indices": 90,
          "material": 1,
          "mode": 4
        }
      ]
    },
    {
      "name": "Object_19",
      "primitives": [
        {
          "attributes": {
            "NORMAL": 92,
            "POSITION": 91,
            "TEXCOORD_0": 93
          },
          "indices": 94,
          "material": 1,
          "mode": 4
        }
      ]
    },
    {
      "name": "Object_20",
      "primitives": [
        {
          "attributes": {
            "NORMAL": 96,
            "POSITION": 95,
            "TEXCOORD_0": 97
          },
          "indices": 98,
          "material": 1,
          "mode": 4
        }
      ]
    },
    {
      "name": "Object_21",
      "primitives": [
        {
          "attributes": {
            "NORMAL": 100,
            "POSITION": 99,
            "TEXCOORD_0": 101
          },
          "indices": 102,
          "material": 1,
          "mode": 4
        }
      ]
    },
    {
      "name": "Object_22",
      "primitives": [
        {
          "attributes": {
            "NORMAL": 104,
            "POSITION": 103,
            "TEXCOORD_0": 105
          },
          "indices": 106,
          "material": 1,
          "mode": 4
        }
      ]
    },
    {
      "name": "Object_23",
      "primitives": [
        {
          "attributes": {
            "NORMAL": 108,
            "POSITION": 107,
            "TEXCOORD_0": 109
          },
          "indices": 110,
          "material": 1,
          "mode": 4
        }
      ]
    },
    {
      "name": "Object_24",
      "primitives": [
        {
          "attributes": {
            "NORMAL": 112,
            "POSITION": 111,
            "TEXCOORD_0": 113
          },
          "indices": 114,
          "material": 1,
          "mode": 4
        }
      ]
    },
    {
      "name": "Object_25",
      "primitives": [
        {
          "attributes": {
            "NORMAL": 116,
            "POSITION": 115,
            "TEXCOORD_0": 117
          },
          "indices": 118,
          "material": 1,
          "mode": 4
        }
      ]
    },
    {
      "name": "Object_26",
      "primitives": [
        {
          "attributes": {
            "NORMAL": 120,
            "POSITION": 119,
            "TEXCOORD_0": 121
          },
          "indices": 122,
          "material": 1,
          "mode": 4
        }
      ]
    },
    {
      "name": "Object_27",
      "primitives": [
        {
          "attributes": {
            "NORMAL": 124,
            "POSITION": 123,
            "TEXCOORD_0": 125
          },
          "indices": 126,
          "material": 1,
          "mode": 4
        }
      ]
    },
    {
      "name": "Object_28",
      "primitives": [
        {
          "attributes": {
            "NORMAL": 128,
            "POSITION": 127,
            "TEXCOORD_0": 129
          },
          "indices": 130,
          "material": 1,
          "mode": 4
        }
      ]
    },
    {
      "name": "Object_29",
      "primitives": [
        {
          "attributes": {
            "NORMAL": 132,
            "POSITION": 131,
            "TEXCOORD_0": 133
          },
          "indices": 134,
          "material": 1,
          "mode": 4
        }
      ]
    },
    {
      "name": "Object_30",
      "primitives": [
        {
          "attributes": {
            "NORMAL": 136,
            "POSITION": 135,
            "TEXCOORD_0": 137
          },
          "indices": 138,
          "material": 1,
          "mode": 4
        }
      ]
    },
    {
      "name": "Object_31",
      "primitives": [
        {
          "attributes": {
            "NORMAL": 140,
            "POSITION": 139,
            "TEXCOORD_0": 141
          },
          "indices": 142,
          "material": 2,
          "mode": 4
        }
      ]
    },
    {
      "name": "Object_32",
      "primitives": [
        {
          "attributes": {
            "NORMAL": 144,
            "POSITION": 143,
            "TEXCOORD_0": 145
          },
          "indices": 146,
          "material": 1,
          "mode": 4
        }
      ]
    },
    {
      "name": "Object_33",
      "primitives": [
        {
          "attributes": {
            "NORMAL": 148,
            "POSITION": 147,
            "TEXCOORD_0": 149
          },
          "indices": 150,
          "material": 1,
          "mode": 4
        }
      ]
    },
    {
      "name": "Object_34",
      "primitives": [
        {
          "attributes": {
            "NORMAL": 152,
            "POSITION": 151,
            "TEXCOORD_0": 153
          },
          "indices": 154,
          "material": 1,
          "mode": 4
        }
      ]
    },
    {
      "name": "Object_35",
      "primitives": [
        {
          "attributes": {
            "NORMAL": 156,
            "POSITION": 155,
            "TEXCOORD_0": 157
          },
          "indices": 158,
          "material": 2,
          "mode": 4
        }
      ]
    }
  ],
  "nodes": [
    {
      "children": [
        1
      ],
      "matrix": [
        1.0,
        0.0,
        0.0,
        0.0,
        0.0,
        2.220446049250313e-16,
        -1.0,
        0.0,
        0.0,
        1.0,
        2.220446049250313e-16,
        0.0,
        0.0,
        0.0,
        0.0,
        1.0
      ],
      "name": "Sketchfab_model"
    },
    {
      "children": [
        2
      ],
      "name": "root"
    },
    {
      "children": [
        3,
        9
      ],
      "matrix": [
        1.0,
        0.0,
        0.0,
        0.0,
        0.0,
        2.220446049250313e-16,
        1.0,
        0.0,
        0.0,
        -1.0,
        2.220446049250313e-16,
        0.0,
        0.0,
        0.0,
        0.0,
        1.0
      ],
      "name": "GLTF_SceneRootNode"
    },
    {
      "children": [
        4,
        5,
        6,
        7,
        8
      ],
      "matrix": [
        1.0,
        0.0,
        0.0,
        0.0,
        0.0,
        -3.371747936409264e-07,
        0.999999999999943,
        0.0,
        0.0,
        -0.999999999999943,
        -3.371747936409264e-07,
        0.0,
        0.09863191843032837,
        0.4246247708797455,
        0.0,
        1.0
      ],
      "name": "material_0"
    },
    {
      "mesh": 0,
      "name": "Object_4"
    },
    {
      "mesh": 1,
      "name": "Object_5"
    },
    {
      "mesh": 2,
      "name": "Object_6"
    },
    {
      "mesh": 3,
      "name": "Object_7"
    },
    {
      "mesh": 4,
      "name": "Object_8"
    },
    {
      "children": [
        10
      ],
      "matrix": [
        0.09497874230146408,
        0.0,
        -0.0,
        0.0,
        -0.0,
        8.006109116238064e-09,
        -0.09497874230146375,
        0.0,
        0.0,
        0.09497874230146375,
        8.006109116238064e-09,
        0.0,
        -0.011678099632263184,
        0.0,
        0.0,
        1.0
      ],
      "name": "Sketchfab_model_59"
    },
    {
      "children": [
        11
      ],
      "matrix": [
        0.009999999776482582,
        0.0,
        0.0,
        0.0,
        0.0,
        -3.3717484890818185e-09,
        0.010000001639127162,
        0.0,
        0.0,
        -0.010000001639127162,
        -3.3717484890818185e-09,
        0.0,
        0.0,
        0.0,
        0.0,
        1.0
      ],
      "name": "6a50e346ab6d4673aee558a29bdd7fbd.fbx_58"
    },
    {
      "children": [
        12,
        25,
        38,
        43,
        48,
        53,
        58,
        63,
        68,
        73,
        76,
        81,
        84
      ],
      "name": "RootNode_57"
    },
    {
      "children": [
        13,
        15,
        17,
        19,
        21,
        23
      ],
      "name": "Circle_7"
    },
    {
      "children": [
        14
      ],
      "matrix": [
        0.0853326116012025,
        0.019422827965248086,
        0.08614352420480764,
        0.0,
        0.02098993634210402,
        0.11189733242305679,
        -0.04602190076891095,
        0.0,
        -0.08577513475308284,
        0.04670488532200097,
        0.07443711370496597,
        0.0,
        180.60179138183594,
        224.50685119628906,
        -1.659118788666092e-05,
        1.0
      ],
      "name": "Circle_mushroms_0.001_1"
    },
    {
      "mesh": 5,
      "name": "Object_14"
    },
    {
      "children": [
        16
      ],
      "matrix": [
        -0.004438397423307612,
        -0.021055221906319862,
        -0.06985213317181539,
        0.0,
        0.03429230516974416,
        0.061166615189419606,
        -0.020616113919301647,
        0.0,
        0.0643947106042695,
        -0.03402445931724618,
        0.006164210081994708,
        0.0,
        208.6439208984375,
        223.8057098388672,
        -3.7636563777923584,
        1.0
      ],
      "name": "Circle_mushroms_0.002_2"
    },
    {
      "mesh": 6,
      "name": "Object_16"
    },
    {
      "children": [
        18
      ],
      "matrix": [
        0.06868464198788424,
        0.009379456827837009,
        -0.023168638634681115,
        0.0,
        -0.01438803025999862,
        0.07023613803051697,
        -0.014220079483411979,
        0.0,
        0.020438802656011595,
        0.01792349802529707,
        0.06784794496592592,
        0.0,
        169.650146484375,
        228.3966827392578,
        10.193310737609863,
        1.0
      ],
      "name": "Circle_mushroms_0.003_3"
    },
    {
      "mesh": 7,
      "name": "Object_18"
    },
    {
      "children": [
        20
      ],
      "matrix": [
        0.08894894486015197,
        0.04061450114456344,
        0.008837615297905239,
        0.0,
        -0.038435952907698676,
        0.07242608895689437,
        0.05400642219755562,
        0.0,
        0.015821452880625555,
        -0.0523877680866472,
        0.08151537521674625,
        0.0,
        19.90411376953125,
        200.57606506347656,
        43.17599868774414,
        1.0
      ],
      "name": "Circle_mushroms_0.004_4"
    },
    {
      "mesh": 8,
      "name": "Object_20"
    },
    {
      "children": [
        22
      ],
      "matrix": [
        -0.04817912360488655,
        0.005506217966946648,
        -0.032611587527158405,
        0.0,
        -0.009604389105610456,
        0.05281041092343365,
        0.023105795837432358,
        0.0,
        0.031647903176805374,
        0.02440909123463149,
        -0.042634123871459643,
        0.0,
        27.4324951171875,
        218.83642578125,
        32.13407897949219,
        1.0
      ],
      "name": "Circle_mushroms_0.005_5"
    },
    {
      "mesh": 9,
      "name": "Object_22"
    },
    {
      "children": [
        24
      ],
      "matrix": [
        0.007275338667627274,
        0.05292418228018609,
        -0.023688875898234284,
        0.0,
        -0.023725399279996513,
        0.024501664928657393,
        0.04745350817382774,
        0.0,
        0.05290781117233778,
        0.0037096702262607154,
        0.024536981416621712,
        0.0,
        22.661376953125,
        192.8302459716797,
        52.404388427734375,
        1.0
      ],
      "name": "Circle_mushroms_0.006_6"
    },
    {
      "mesh": 10,
      "name": "Object_24"
    },
    {
      "children": [
        26,
        28,
        30,
        32,
        34,
        36
      ],
      "name": "Circle.001_14"
    },
    {
      "children": [
        27
      ],
      "matrix": [
        0.027134518178977208,
        0.0,
        -0.1547336296069144,
        0.0,
        0.0,
        0.1570947915315628,
        0.0,
        0.0,
        0.15473361492972162,
        0.0,
        0.027134515605144,
        0.0,
        184.3794403076172,
        224.86727905273438,
        -5.741122245788574,
        1.0
      ],
      "name": "Circle.001_mushroms_0_8"
    },
    {
      "mesh": 11,
      "name": "Object_27"
    },
    {
      "children": [
        29
      ],
      "matrix": [
        0.05717436775454679,
        0.08028384585453666,
        -0.12232895803859303,
        0.0,
        -0.06540593454099539,
        0.13150715043988942,
        0.05573788045965099,
        0.0,
        0.13088901255193994,
        0.03064558183687025,
        0.08128771687772281,
        0.0,
        157.95079040527344,
        226.43809509277344,
        13.154995918273926,
        1.0
      ],
      "name": "Circle.001_mushroms_0.001_9"
    },
    {
      "mesh": 12,
      "name": "Object_29"
    },
    {
      "children": [
        31
      ],
      "matrix": [
        0.020160138738237098,
        0.06006151183284386,
        -0.09802530650439563,
        0.0,
        1.3314206114156264e-08,
        0.09952113098403115,
        0.06097802769291617,
        0.0,
        0.11496237474170498,
        -0.01053257549465696,
        0.017189999979155948,
        0.0,
        202.30499267578125,
        226.44302368164063,
        13.852940559387207,
        1.0
      ],
      "name": "Circle.001_mushroms_0.002_10"
    },
    {
      "mesh": 13,
      "name": "Object_31"
    },
    {
      "children": [
        33
      ],
      "matrix": [
        -0.09909562019168755,
        0.0553737391955459,
        -0.05375486129180886,
        0.0,
        -0.019109187448052102,
        0.06715634538162031,
        0.10440608721032986,
        0.0,
        0.07477080629232903,
        0.09055135102673242,
        -0.044559551799592576,
        0.0,
        17.1806640625,
        204.52650451660156,
        40.48325729370117,
        1.0
      ],
      "name": "Circle.001_mushroms_0.003_11"
    },
    {
      "mesh": 14,
      "name": "Object_33"
    },
    {
      "children": [
        35
      ],
      "matrix": [
        -0.07525384619679906,
        0.10055400471761622,
        -0.0012319027353638859,
        0.0,
        -0.0003196251889511208,
        0.0012994727581887864,
        0.12559450533371577,
        0.0,
        0.1005610306699262,
        0.07525270080882245,
        -0.0005226900339132791,
        0.0,
        20.77313232421875,
        183.90484619140625,
        55.91591262817383,
        1.0
      ],
      "name": "Circle.001_mushroms_0.004_12"
    },
    {
      "mesh": 15,
      "name": "Object_35"
    },
    {
      "children": [
        37
      ],
      "matrix": [
        -0.06901521039472859,
        0.06262260550464196,
        0.0048576500615538625,
        0.0,
        0.030794101480822036,
        0.027444460384295464,
        0.08370668358765593,
        0.0,
        0.05474405403836952,
        0.06350983130010754,
        -0.04096192630864044,
        0.0,
        37.2244873046875,
        211.6166534423828,
        41.10689163208008,
        1.0
      ],
      "name": "Circle.001_mushroms_0.005_13"
    },
    {
      "mesh": 16,
      "name": "Object_37"
    },
    {
      "children": [
        39,
        41
      ],
      "name": "Circle.004_18"
    },
    {
      "children": [
        40
      ],
      "matrix": [
        0.06419905412522066,
        -0.00029543679991054903,
        0.3723179560624169,
        0.0,
        0.05691448975493484,
        0.3733797313336762,
        -0.009517527257577782,
        0.0,
        -0.36794223533774156,
        0.05770403093598034,
        0.06349033397594485,
        0.0,
        168.6893310546875,
        229.48886108398438,
        5.039767742156982,
        1.0
      ],
      "name": "Circle.004_mushroms_0.001_16"
    },
    {
      "mesh": 17,
      "name": "Object_40"
    },
    {
      "children": [
        42
      ],
      "matrix": [
        0.28507524417878755,
        -0.05196435554157235,
        0.08531710917358236,
        0.0,
        -0.03163359550788776,
        0.19775090139320078,
        0.22614400908816765,
        0.0,
        -0.09475557607489869,
        -0.22235443030390767,
        0.1811824669638926,
        0.0,
        18.55712890625,
        193.96925354003906,
        51.971046447753906,
        1.0
      ],
      "name": "Circle.004_mushroms_0.002_17"
    },
    {
      "mesh": 18,
      "name": "Object_42"
    },
    {
      "children": [
        44,
        46
      ],
      "name": "Circle.006_22"
    },
    {
      "children": [
        45
      ],
      "matrix": [
        0.06419905412522066,
        -0.00029543679991054903,
        0.3723179560624169,
        0.0,
        0.05691448975493484,
        0.3733797313336762,
        -0.009517527257577782,
        0.0,
        -0.36794223533774156,
        0.05770403093598034,
        0.06349033397594485,
        0.0,
        168.6893310546875,
        226.69044494628906,
        5.039768218994141,
        1.0
      ],
      "name": "Circle.006_mushroms_0.001_20"
    },
    {
      "mesh": 19,
      "name": "Object_45"
    },
    {
      "children": [
        47
      ],
      "matrix": [
        0.28507524417878755,
        -0.05196435554157235,
        0.08531710917358236,
        0.0,
        -0.03163359550788776,
        0.19775090139320078,
        0.22614400908816765,
        0.0,
        -0.09475557607489869,
        -0.22235443030390767,
        0.1811824669638926,
        0.0,
        18.89752197265625,
        192.7730255126953,
        50.11117172241211,
        1.0
      ],
      "name": "Circle.006_mushroms_0.002_21"
    },
    {
      "mesh": 20,
      "name": "Object_47"
    },
    {
      "children": [
        49,
        51
      ],
      "name": "Icosphere.001_27"
    },
    {
      "children": [
        50
      ],
      "matrix": [
        0.06419905412522066,
        -0.00029543679991054903,
        0.3723179560624169,
        0.0,
        0.05691448975493484,
        0.3733797313336762,
        -0.009517527257577782,
        0.0,
        -0.36794223533774156,
        0.05770403093598034,
        0.06349033397594485,
        0.0,
        168.6893310546875,
        229.48886108398438,
        5.039767742156982,
        1.0
      ],
      "name": "Icosphere.001_mushroms_0.001_25"
    },
    {
      "mesh": 21,
      "name": "Object_50"
    },
    {
      "children": [
        52
      ],
      "matrix": [
        0.28507524417878755,
        -0.05196435554157235,
        0.08531710917358236,
        0.0,
        -0.03163359550788776,
        0.19775090139320078,
        0.22614400908816765,
        0.0,
        -0.09475557607489869,
        -0.22235443030390767,
        0.1811824669638926,
        0.0,
        18.55712890625,
        193.96925354003906,
        51.971046447753906,
        1.0
      ],
      "name": "Icosphere.001_mushroms_0.002_26"
    },
    {
      "mesh": 22,
      "name": "Object_52"
    },
    {
      "children": [
        54,
        56
      ],
      "name": "Icosphere.002_30"
    },
    {
      "children": [
        55
      ],
      "matrix": [
        0.06419905412522066,
        -0.00029543679991054903,
        0.3723179560624169,
        0.0,
        0.05691448975493484,
        0.3733797313336762,
        -0.009517527257577782,
        0.0,
        -0.36794223533774156,
        0.05770403093598034,
        0.06349033397594485,
        0.0,
        168.6893310546875,
        229.48886108398438,
        5.039767742156982,
        1.0
      ],
      "name": "Icosphere.002_mushroms_0.001_28"
    },
    {
      "mesh": 23,
      "name": "Object_55"
    },
    {
      "children": [
        57
      ],
      "matrix": [
        0.28507524417878755,
        -0.05196435554157235,
        0.08531710917358236,
        0.0,
        -0.03163359550788776,
        0.19775090139320078,
        0.22614400908816765,
        0.0,
        -0.09475557607489869,
        -0.22235443030390767,
        0.1811824669638926,
        0.0,
        18.55712890625,
        193.96925354003906,
        51.971046447753906,
        1.0
      ],
      "name": "Icosphere.002_mushroms_0.002_29"
    },
    {
      "mesh": 24,
      "name": "Object_57"
    },
    {
      "children": [
        59,
        61
      ],
      "name": "Icosphere.009_39"
    },
    {
      "children": [
        60
      ],
      "matrix": [
        0.06419905412522066,
        -0.00029543679991054903,
        0.3723179560624169,
        0.0,
        0.05691448975493484,
        0.3733797313336762,
        -0.009517527257577782,
        0.0,
        -0.36794223533774156,
        0.05770403093598034,
        0.06349033397594485,
        0.0,
        168.6893310546875,
        229.48886108398438,
        5.039767742156982,
        1.0
      ],
      "name": "Icosphere.009_mushroms_0.001_37"
    },
    {
      "mesh": 25,
      "name": "Object_60"
    },
    {
      "children": [
        62
      ],
      "matrix": [
        0.28507524417878755,
        -0.05196435554157235,
        0.08531710917358236,
        0.0,
        -0.03163359550788776,
        0.19775090139320078,
        0.22614400908816765,
        0.0,
        -0.09475557607489869,
        -0.22235443030390767,
        0.1811824669638926,
        0.0,
        18.55712890625,
        193.96925354003906,
        51.971046447753906,
        1.0
      ],
      "name": "Icosphere.009_mushroms_0.002_38"
    },
    {
      "mesh": 26,
      "name": "Object_62"
    },
    {
      "children": [
        64,
        66
      ],
      "name": "Icosphere.010_42"
    },
    {
      "children": [
        65
      ],
      "matrix": [
        0.06419905412522066,
        -0.00029543679991054903,
        0.3723179560624169,
        0.0,
        0.05691448975493484,
        0.3733797313336762,
        -0.009517527257577782,
        0.0,
        -0.36794223533774156,
        0.05770403093598034,
        0.06349033397594485,
        0.0,
        168.6893310546875,
        229.48886108398438,
        5.039767742156982,
        1.0
      ],
      "name": "Icosphere.010_mushroms_0.001_40"
    },
    {
      "mesh": 27,
      "name": "Object_65"
    },
    {
      "children": [
        67
      ],
      "matrix": [
        0.28507524417878755,
        -0.05196435554157235,
        0.08531710917358236,
        0.0,
        -0.03163359550788776,
        0.19775090139320078,
        0.22614400908816765,
        0.0,
        -0.09475557607489869,
        -0.22235443030390767,
        0.1811824669638926,
        0.0,
        18.55712890625,
        193.96925354003906,
        51.971046447753906,
        1.0
      ],
      "name": "Icosphere.010_mushroms_0.002_41"
    },
    {
      "mesh": 28,
      "name": "Object_67"
    },
    {
      "children": [
        69,
        71
      ],
      "name": "Icosphere.011_45"
    },
    {
      "children": [
        70
      ],
      "matrix": [
        0.06419905412522066,
        -0.00029543679991054903,
        0.3723179560624169,
        0.0,
        0.05691448975493484,
        0.3733797313336762,
        -0.009517527257577782,
        0.0,
        -0.36794223533774156,
        0.05770403093598034,
        0.06349033397594485,
        0.0,
        173.34539794921875,
        225.26429748535156,
        5.039768218994141,
        1.0
      ],
      "name": "Icosphere.011_mushroms_0.001_43"
    },
    {
      "mesh": 29,
      "name": "Object_70"
    },
    {
      "children": [
        72
      ],
      "matrix": [
        0.28507524417878755,
        -0.05196435554157235,
        0.08531710917358236,
        0.0,
        -0.03163359550788776,
        0.19775090139320078,
        0.22614400908816765,
        0.0,
        -0.09475557607489869,
        -0.22235443030390767,
        0.1811824669638926,
        0.0,
        20.7464599609375,
        195.09030151367188,
        47.58732223510742,
        1.0
      ],
      "name": "Icosphere.011_mushroms_0.002_44"
    },
    {
      "mesh": 30,
      "name": "Object_72"
    },
    {
      "children": [
        74
      ],
      "name": "Plane_48"
    },
    {
      "children": [
        75
      ],
      "matrix": [
        1.6343305110931396,
        0.0,
        0.0,
        0.0,
        0.0,
        0.963047981262207,
        0.0,
        0.0,
        0.0,
        0.0,
        0.963047981262207,
        0.0,
        12.32794189453125,
        45.51541519165039,
        10.952113151550293,
        1.0
      ],
      "name": "Plane_ground_0_47"
    },
    {
      "mesh": 31,
      "name": "Object_75"
    },
    {
      "children": [
        77,
        79
      ],
      "name": "Plane.001_51"
    },
    {
      "children": [
        78
      ],
      "matrix": [
        1.0,
        0.0,
        0.0,
        0.0,
        0.0,
        1.0,
        0.0,
        0.0,
        0.0,
        0.0,
        1.0,
        0.0,
        2.6405038833618164,
        48.06580352783203,
        14.992385864257813,
        1.0
      ],
      "name": "Plane.001_mushroms_0.001_49"
    },
    {
      "mesh": 32,
      "name": "Object_78"
    },
    {
      "children": [
        80
      ],
      "matrix": [
        0.6000667810440063,
        0.0,
        0.0,
        0.0,
        0.0,
        0.6000668406486511,
        0.0,
        0.0,
        0.0,
        0.0,
        0.6000668406486511,
        0.0,
        73.30156707763672,
        214.40020751953125,
        -21.32659339904785,
        1.0
      ],
      "name": "Plane.001_mushroms_0.002_50"
    },
    {
      "mesh": 33,
      "name": "Object_80"
    },
    {
      "children": [
        82
      ],
      "name": "Plane.002_53"
    },
    {
      "children": [
        83
      ],
      "matrix": [
        1.0,
        0.0,
        0.0,
        0.0,
        0.0,
        1.0,
        0.0,
        0.0,
        0.0,
        0.0,
        1.0,
        0.0,
        28.05059814453125,
        62.119300842285156,
        41.840267181396484,
        1.0
      ],
      "name": "Plane.002_mushroms_0.001_52"
    },
    {
      "mesh": 34,
      "name": "Object_83"
    },
    {
      "children": [
        85
      ],
      "name": "Plane.004_56"
    },
    {
      "children": [
        86
      ],
      "matrix": [
        1.591154103080963,
        0.0,
        1.6064019242293768,
        0.0,
        -0.0,
        2.2610392570495605,
        0.0,
        0.0,
        -1.6064019242293768,
        -0.0,
        1.591154103080963,
        0.0,
        0.0,
        0.0,
        0.0,
        1.0
      ],
      "name": "Plane.004_ground_0_55"
    },
    {
      "mesh": 35,
      "name": "Object_86"
    }
  ],
  "samplers": [
    {
      "magFilter": 9729,
      "minFilter": 9987,
      "wrapS": 10497,
      "wrapT": 10497
    }
  ],
  "scene": 0,
  "scenes": [
    {
      "name": "Sketchfab_Scene",
      "nodes": [
        0
      ]
    }
  ],
  "textures": [
    {
      "sampler": 0,
      "source": 0
    },
    {
      "sampler": 0,
      "source": 1
    },
    {
      "sampler": 0,
      "source": 2
    },
    {
      "sampler": 0,
      "source": 3
    }
  ]
}
