{
  "accessors": [
    {
      "bufferView": 3,
      "componentType": 5126,
      "count": 2216,
      "max": [
        303.2897033691406,
        101.25707244873047,
        412.59552001953125
      ],
      "min": [
        -303.2897033691406,
        -120.6746597290039,
        -0.0024437904357910156
      ],
      "type": "VEC3"
    },
    {
      "bufferView": 3,
      "byteOffset": 26592,
      "componentType": 5126,
      "count": 2216,
      "max": [
        1.0,
        0.9998332858085632,
        1.0
      ],
      "min": [
        -1.0,
        -0.9999990463256836,
        -1.0
      ],
      "type": "VEC3"
    },
    {
      "bufferView": 2,
      "componentType": 5126,
      "count": 2216,
      "max": [
        1.991984486579895,
        0.9863647222518921
      ],
      "min": [
        0.011846102774143219,
        0.013706717640161514
      ],
      "type": "VEC2"
    },
    {
      "bufferView": 1,
      "componentType": 5125,
      "count": 11712,
      "type": "SCALAR"
    },
    {
      "bufferView": 5,
      "componentType": 5126,
      "count": 24,
      "max": [
        1.0,
        0.9998818039894104,
        0.26168128848075867,
        0.0,
        0.32073283195495605,
        1.0,
        0.964976966381073,
        0.0,
        0.9999993443489075,
        0.9999083876609802,
        1.0,
        0.0,
        338.6983642578125,
        65.73484802246094,
        338.6170959472656,
        1.0
      ],
      "min": [
        -0.9596540927886963,
        -0.9998818039894104,
        -0.8742765784263611,
        0.0,
        -0.32073283195495605,
        -0.9953846335411072,
        -0.9999083876609802,
        0.0,
        -0.9999993443489075,
        -0.9997885227203369,
        -0.9999568462371826,
        0.0,
        -305.3236389160156,
        -311.17755126953125,
        -6.575924873352051,
        1.0
      ],
      "type": "MAT4"
    },
    {
      "bufferView": 0,
      "componentType": 5123,
      "count": 2216,
      "type": "VEC4"
    },
    {
      "bufferView": 4,
      "componentType": 5126,
      "count": 2216,
      "max": [
        1.0,
        0.48990294337272644,
        0.20357446372509003,
        0.0
      ],
      "min": [
        0.4536780118942261,
        0.0,
        0.0,
        0.0
      ],
      "type": "VEC4"
    }
  ],
  "asset": {
    "extras": {
      "author": "sunorchid321 (https://sketchfab.com/sunorchid321)",
      "license": "CC-BY-4.0 (http://creativecommons.org/licenses/by/4.0/)",
      "source": "https://sketchfab.com/3d-models/pingu-with-rigging-2c200660be8846bfa5c8487135adaffa",
      "title": "Pingu with rigging"
    },
    "generator": "Sketchfab-15.30.0",
    "version": "2.0"
  },
  "bufferViews": [
    {
      "buffer": 0,
      "byteLength": 17728,
      "byteStride": 8,
      "name": "shortBufferViews",
      "target": 34962
    },
    {
      "buffer": 0,
      "byteLength": 46848,
      "byteOffset": 17728,
      "name": "floatBufferViews",
      "target": 34963
    },
    {
      "buffer": 0,
      "byteLength": 17728,
      "byteOffset": 64576,
      "byteStride": 8,
      "name": "floatBufferViews",
      "target": 34962
    },
    {
      "buffer": 0,
      "byteLength": 53184,
      "byteOffset": 82304,
      "byteStride": 12,
      "name": "floatBufferViews",
      "target": 34962
    },
    {
      "buffer": 0,
      "byteLength": 35456,
      "byteOffset": 135488,
      "byteStride": 16,
      "name": "floatBufferViews",
      "target": 34962
    },
    {
      "buffer": 0,
      "byteLength": 1536,
      "byteOffset": 170944,
      "name": "floatBufferViews"
    }
  ],
  "buffers": [
    {
      "byteLength": 172480,
      "uri": "scene.bin"
    }
  ],
  "extensionsUsed": [
    "KHR_materials_unlit"
  ],
  "images": [
    {
      "uri": "textures/material_baseColor.png"
    }
  ],
  "materials": [
    {
      "doubleSided": true,
      "extensions": {
        "KHR_materials_unlit": {}
      },
      "name": "material",
      "pbrMetallicRoughness": {
        "baseColorTexture": {
          "index": 0
        },
        "metallicFactor": 0.0
      }
    }
  ],
  "meshes": [
    {
      "name": "pingu_UV_0",
      "primitives": [
        {
          "attributes": {
            "JOINTS_0": 5,
            "NORMAL": 1,
            "POSITION": 0,
            "TEXCOORD_0": 2,
            "WEIGHTS_0": 6
          },
          "indices": 3,
          "material": 0,
          "mode": 4
        }
      ]
    }
  ],
  "nodes": [
    {
      "children": [
        1
      ],
      "matrix": [
        1.0,
        2.8327693431939995e-16,
        -2.8327693431939985e-16,
        0.0,
        2.832769343193999e-16,
        -2.2204460492503126e-16,
        1.0,
        0.0,
        2.832769343193999e-16,
        -1.0,
        -2.2204460492503136e-16,
        0.0,
        0.0,
        0.0,
        0.0,
        1.0
      ],
      "name": "Sketchfab_model"
    },
    {
      "children": [
        2
      ],
      "matrix": [
        0.009999999776482582,
        0.0,
        0.0,
        0.0,
        0.0,
        -0.009999999776482582,
        0.0,
        0.0,
        0.0,
        0.0,
        -0.009999999776482582,
        0.0,
        0.0,
        0.0,
        0.0,
        1.0
      ],
      "name": "9486a2442d564d4fb1bf117a522211b8.fbx"
    },
    {
      "children": [
        3
      ],
      "name": "RootNode"
    },
    {
      "children": [
        4,
        6,
        5
      ],
      "name": "Object_3"
    },
    {
      "children": [
        7
      ],
      "name": "_rootJoint"
    },
    {
      "matrix": [
        1.0,
        0.0,
        0.0,
        0.0,
        0.0,
        6.123233995736766e-17,
        1.0,
        0.0,
        0.0,
        -1.0,
        6.123233995736766e-17,
        0.0,
        0.0,
        3.552713678800501e-15,
        0.0,
        1.0
      ],
      "name": "Object_5"
    },
    {
      "mesh": 0,
      "name": "Object_6",
      "skin": 0
    },
    {
      "children": [
        8,
        24,
        27
      ],
      "name": "spine_00",
      "rotation": [
        0.729722261428833,
        0.0,
        0.0,
        0.6837437748908997
      ],
      "translation": [
        0.0,
        15.071900367736816,
        49.39780044555664
      ]
    },
    {
      "children": [
        9
      ],
      "name": "spine.001_01",
      "rotation": [
        0.01601053588092327,
        0.0,
        0.0,
        0.9998718500137329
      ],
      "scale": [
        1.0,
        1.0000003576278687,
        1.0000003576278687
      ],
      "translation": [
        0.0,
        97.66596221923828,
        -1.3426299119601026e-05
      ]
    },
    {
      "children": [
        10,
        15,
        19
      ],
      "name": "spine.002_012",
      "rotation": [
        -0.040250882506370544,
        -0.0,
        0.0,
        0.9991896152496338
      ],
      "scale": [
        1.0,
        0.9999993443489075,
        0.9999993443489075
      ],
      "translation": [
        0.0,
        62.1348991394043,
        -8.275904110632837e-05
      ]
    },
    {
      "children": [
        11
      ],
      "name": "upper_arm.R_04",
      "rotation": [
        0.013253002427518368,
        0.002726846607401967,
        0.7124791741371155,
        0.7015628218650818
      ],
      "scale": [
        0.9999998807907104,
        0.9999999403953552,
        1.0000007152557373
      ],
      "translation": [
        -45.725799560546875,
        96.23833465576172,
        -5.095906734466553
      ]
    },
    {
      "children": [
        12
      ],
      "name": "upper_arm.R.001_05",
      "rotation": [
        -1.2685889487329405e-05,
        4.40130206146354e-23,
        -3.469446951953614e-18,
        1.0
      ],
      "translation": [
        -4.811004146176856e-06,
        60.0256462097168,
        -0.0016829951200634241
      ]
    },
    {
      "children": [
        13
      ],
      "name": "forearm.R_06",
      "rotation": [
        -0.004378561861813068,
        0.00949099101126194,
        -0.011113829910755157,
        0.9998837113380432
      ],
      "scale": [
        0.9999998211860657,
        1.0000005960464478,
        0.9999998807907104
      ],
      "translation": [
        -0.00010159088560612872,
        60.02565002441406,
        -5.698874520021491e-05
      ]
    },
    {
      "children": [
        14
      ],
      "name": "forearm.R.001_07",
      "rotation": [
        -1.6263032587282567e-19,
        8.673617379884035e-19,
        1.410593220986745e-37,
        1.0
      ],
      "translation": [
        0.00010201202530879527,
        45.657989501953125,
        0.002496986882761121
      ]
    },
    {
      "name": "hand.R_08",
      "rotation": [
        0.0067312163300812244,
        0.00611365819349885,
        0.0038183429278433323,
        0.9999513626098633
      ],
      "scale": [
        1.0000004768371582,
        0.9999998211860657,
        0.9999991655349731
      ],
      "translation": [
        8.007009455468506e-07,
        45.65798568725586,
        0.0023982340935617685
      ]
    },
    {
      "children": [
        16,
        17,
        18
      ],
      "name": "head_016",
      "rotation": [
        -0.0014916702639311552,
        -0.0,
        0.0,
        0.9999989867210388
      ],
      "scale": [
        1.0,
        1.0000001192092896,
        1.0000001192092896
      ],
      "translation": [
        0.0,
        102.5335693359375,
        -0.13160556554794312
      ]
    },
    {
      "name": "mouth_017",
      "rotation": [
        0.7356859445571899,
        1.1171944152010838e-06,
        1.0009382549469592e-06,
        0.6773228049278259
      ],
      "scale": [
        1.0,
        1.0000003576278687,
        1.0000003576278687
      ],
      "translation": [
        0.0,
        25.57335662841797,
        41.89703369140625
      ]
    },
    {
      "name": "head_L_018",
      "rotation": [
        0.3172254264354706,
        -0.39342963695526123,
        -0.5368925929069519,
        0.6755201816558838
      ],
      "scale": [
        1.0000005960464478,
        0.9999999403953552,
        1.000000238418579
      ],
      "translation": [
        10.796699523925781,
        39.7526741027832,
        17.233837127685547
      ]
    },
    {
      "name": "head_R_019",
      "rotation": [
        -0.5400436520576477,
        0.6715461015701294,
        0.3118314743041992,
        -0.4001747667789459
      ],
      "scale": [
        1.0000001192092896,
        1.0000008344650269,
        1.0000003576278687
      ],
      "translation": [
        -10.796699523925781,
        39.7526741027832,
        17.233837127685547
      ]
    },
    {
      "children": [
        20
      ],
      "name": "upper_arm.L_020",
      "rotation": [
        0.013253002427518368,
        -0.002726846607401967,
        -0.7124791741371155,
        0.7015628218650818
      ],
      "scale": [
        0.9999998807907104,
        0.9999999403953552,
        1.0000007152557373
      ],
      "translation": [
        45.725799560546875,
        96.23833465576172,
        -5.095906734466553
      ]
    },
    {
      "children": [
        21
      ],
      "name": "upper_arm.L.001_021",
      "rotation": [
        -1.2685889487329405e-05,
        -4.40130206146354e-23,
        3.469446951953614e-18,
        1.0
      ],
      "translation": [
        4.811004146176856e-06,
        60.0256462097168,
        -0.0016829951200634241
      ]
    },
    {
      "children": [
        22
      ],
      "name": "forearm.L_022",
      "rotation": [
        -0.004378561861813068,
        -0.009490996599197388,
        0.011113827116787434,
        0.9998837113380432
      ],
      "scale": [
        1.0000008344650269,
        1.0000005960464478,
        0.9999998807907104
      ],
      "translation": [
        0.00010159088560612872,
        60.02565002441406,
        -5.698874520021491e-05
      ]
    },
    {
      "children": [
        23
      ],
      "name": "forearm.L.001_02",
      "rotation": [
        -1.938011383317839e-18,
        -8.673617379884035e-19,
        -4.336808689942018e-19,
        1.0
      ],
      "translation": [
        -0.00010230592306470498,
        45.657989501953125,
        0.002496986882761121
      ]
    },
    {
      "name": "hand.L_03",
      "rotation": [
        0.0067312163300812244,
        -0.00611365819349885,
        -0.0038183436263352633,
        0.9999513626098633
      ],
      "scale": [
        0.999999463558197,
        0.9999998211860657,
        0.9999991655349731
      ],
      "translation": [
        -1.0946992006211076e-06,
        45.65798568725586,
        0.0023982340935617685
      ]
    },
    {
      "children": [
        25
      ],
      "name": "thigh.L_09",
      "rotation": [
        0.9903682470321655,
        -0.008253829553723335,
        -0.13176771998405457,
        0.041714828461408615
      ],
      "scale": [
        0.9999997019767761,
        0.9999997019767761,
        1.0000132322311401
      ],
      "translation": [
        42.966400146484375,
        15.398193359375,
        -5.6064653396606445
      ]
    },
    {
      "children": [
        26
      ],
      "name": "foot.L_010",
      "rotation": [
        -0.6998863220214844,
        -0.021224480122327805,
        -0.0225200317800045,
        0.7135835886001587
      ],
      "scale": [
        1.0000004768371582,
        1.0000003576278687,
        1.0000003576278687
      ],
      "translation": [
        2.3925415007397532e-05,
        58.1556282043457,
        -7.290447683772072e-05
      ]
    },
    {
      "name": "toe.L_011",
      "rotation": [
        -0.020747050642967224,
        0.9997695088386536,
        -0.0032182903960347176,
        -0.004484081175178289
      ],
      "scale": [
        0.9999991655349731,
        0.9999991655349731,
        0.9999997019767761
      ],
      "translation": [
        -5.895537105971016e-05,
        89.0599365234375,
        -8.757963223615661e-05
      ]
    },
    {
      "children": [
        28
      ],
      "name": "thigh.R_013",
      "rotation": [
        0.9903683066368103,
        0.008253819309175014,
        0.13176722824573517,
        0.041714828461408615
      ],
      "scale": [
        0.9999994039535522,
        0.9999997019767761,
        1.0000132322311401
      ],
      "translation": [
        -42.966400146484375,
        15.398193359375,
        -5.6064653396606445
      ]
    },
    {
      "children": [
        29
      ],
      "name": "foot.R_014",
      "rotation": [
        -0.6998863220214844,
        0.021224811673164368,
        0.02252037078142166,
        0.7135835886001587
      ],
      "scale": [
        1.0000007152557373,
        1.0000003576278687,
        1.0000003576278687
      ],
      "translation": [
        -2.5080928026000038e-05,
        58.1556282043457,
        -7.348638609983027e-05
      ]
    },
    {
      "name": "toe.R_015",
      "rotation": [
        0.020747190341353416,
        0.9997695088386536,
        -0.0032182896975427866,
        0.004484080709517002
      ],
      "scale": [
        1.0000001192092896,
        0.9999991655349731,
        0.9999997019767761
      ],
      "translation": [
        5.895537105971016e-05,
        89.0599365234375,
        -8.757963223615661e-05
      ]
    }
  ],
  "samplers": [
    {
      "magFilter": 9729,
      "minFilter": 9987,
      "wrapS": 10497,
      "wrapT": 10497
    }
  ],
  "scene": 0,
  "scenes": [
    {
      "name": "Sketchfab_Scene",
      "nodes": [
        0
      ]
    }
  ],
  "skins": [
    {
      "inverseBindMatrices": 4,
      "joints": [
        4,
        7,
        8,
        9,
        10,
        11,
        12,
        13,
        14,
        15,
        16,
        17,
        18,
        19,
        20,
        21,
        22,
        23,
        24,
        25,
        26,
        27,
        28,
        29
      ],
      "skeleton": 4
    }
  ],
  "textures": [
    {
      "sampler": 0,
      "source": 0
    }
  ]
}
