{
  "accessors": [
    {
      "bufferView": 2,
      "componentType": 5126,
      "count": 65532,
      "max": [
        2.115499973297119,
        7.712428092956543,
        0.9740139842033386
      ],
      "min": [
        -0.9117779731750488,
        5.785964012145996,
        -1.2207419872283936
      ],
      "type": "VEC3"
    },
    {
      "bufferView": 2,
      "byteOffset": 786384,
      "componentType": 5126,
      "count": 65532,
      "max": [
        0.999984085559845,
        0.9998314380645752,
        0.999965488910675
      ],
      "min": [
        -0.9999659061431885,
        -0.9999900460243225,
        -0.9997068047523499
      ],
      "type": "VEC3"
    },
    {
      "bufferView": 1,
      "componentType": 5126,
      "count": 65532,
      "max": [
        0.9944040179252625,
        0.8553479909896851
      ],
      "min": [
        0.09082099795341492,
        0.0038739999290555716
      ],
      "type": "VEC2"
    },
    {
      "bufferView": 0,
      "componentType": 5125,
      "count": 341004,
      "type": "SCALAR"
    },
    {
      "bufferView": 2,
      "byteOffset": 1572768,
      "componentType": 5126,
      "count": 65532,
      "max": [
        1.3010929822921753,
        8.273526191711426,
        1.1764249801635742
      ],
      "min": [
        -0.7680760025978088,
        5.705714225769043,
        -1.103355050086975
      ],
      "type": "VEC3"
    },
    {
      "bufferView": 2,
      "byteOffset": 2359152,
      "componentType": 5126,
      "count": 65532,
      "max": [
        0.9999856352806091,
        0.9995616674423218,
        0.9999553561210632
      ],
      "min": [
        -0.9999945759773254,
        -0.9999945759773254,
        -0.999765157699585
      ],
      "type": "VEC3"
    },
    {
      "bufferView": 1,
      "byteOffset": 524256,
      "componentType": 5126,
      "count": 65532,
      "max": [
        0.9974719882011414,
        0.9900220036506653
      ],
      "min": [
        0.037615999579429626,
        0.020788999274373055
      ],
      "type": "VEC2"
    },
    {
      "bufferView": 0,
      "byteOffset": 1364016,
      "componentType": 5125,
      "count": 321219,
      "type": "SCALAR"
    },
    {
      "bufferView": 2,
      "byteOffset": 3145536,
      "componentType": 5126,
      "count": 65532,
      "max": [
        1.3088710308074951,
        8.197992324829102,
        1.1281280517578125
      ],
      "min": [
        -1.0597590208053589,
        5.69331693649292,
        -1.2652989625930786
      ],
      "type": "VEC3"
    },
    {
      "bufferView": 2,
      "byteOffset": 3931920,
      "componentType": 5126,
      "count": 65532,
      "max": [
        0.999984085559845,
        0.9998314380645752,
        0.9999777674674988
      ],
      "min": [
        -0.9999945759773254,
        -0.9999780058860779,
        -0.9997068047523499
      ],
      "type": "VEC3"
    },
    {
      "bufferView": 1,
      "byteOffset": 1048512,
      "componentType": 5126,
      "count": 65532,
      "max": [
        0.9972040057182312,
        0.9997739791870117
      ],
      "min": [
        0.00964600034058094,
        0.0038240000139921904
      ],
      "type": "VEC2"
    },
    {
      "bufferView": 0,
      "byteOffset": 2648892,
      "componentType": 5125,
      "count": 308478,
      "type": "SCALAR"
    },
    {
      "bufferView": 2,
      "byteOffset": 4718304,
      "componentType": 5126,
      "count": 65532,
      "max": [
        2.0771169662475586,
        8.607115745544434,
        1.2390600442886353
      ],
      "min": [
        -2.0402650833129883,
        5.462619781494141,
        -1.445459008216858
      ],
      "type": "VEC3"
    },
    {
      "bufferView": 2,
      "byteOffset": 5504688,
      "componentType": 5126,
      "count": 65532,
      "max": [
        0.9999909400939941,
        0.9994906187057495,
        0.9999831318855286
      ],
      "min": [
        -0.9998559355735779,
        -0.9999945759773254,
        -0.9946039915084839
      ],
      "type": "VEC3"
    },
    {
      "bufferView": 1,
      "byteOffset": 1572768,
      "componentType": 5126,
      "count": 65532,
      "max": [
        0.9969130158424377,
        0.9992769956588745
      ],
      "min": [
        0.014618000015616417,
        0.004708999767899513
      ],
      "type": "VEC2"
    },
    {
      "bufferView": 0,
      "byteOffset": 3882804,
      "componentType": 5125,
      "count": 310473,
      "type": "SCALAR"
    },
    {
      "bufferView": 2,
      "byteOffset": 6291072,
      "componentType": 5126,
      "count": 10576,
      "max": [
        1.3169690370559692,
        8.081366539001465,
        1.1716190576553345
      ],
      "min": [
        -0.9453259706497192,
        5.739765167236328,
        -0.8290449976921082
      ],
      "type": "VEC3"
    },
    {
      "bufferView": 2,
      "byteOffset": 6417984,
      "componentType": 5126,
      "count": 10576,
      "max": [
        0.9996314644813538,
        0.981563925743103,
        0.9997645616531372
      ],
      "min": [
        -0.9998455047607422,
        -0.9999879598617554,
        -0.9989398121833801
      ],
      "type": "VEC3"
    },
    {
      "bufferView": 1,
      "byteOffset": 2097024,
      "componentType": 5126,
      "count": 10576,
      "max": [
        0.9778500199317932,
        0.9924290180206299
      ],
      "min": [
        0.011345000006258488,
        0.01731099933385849
      ],
      "type": "VEC2"
    },
    {
      "bufferView": 0,
      "byteOffset": 5124696,
      "componentType": 5125,
      "count": 30144,
      "type": "SCALAR"
    }
  ],
  "asset": {
    "extras": {
      "author": "fedexrfoto (https://sketchfab.com/fedexrfoto)",
      "license": "CC-BY-4.0 (http://creativecommons.org/licenses/by/4.0/)",
      "source": "https://sketchfab.com/3d-models/roca-3-e84b7817c4dd49358a1e193a9536d8c6",
      "title": "Roca 3"
    },
    "generator": "Sketchfab-14.85.0",
    "version": "2.0"
  },
  "bufferViews": [
    {
      "buffer": 0,
      "byteLength": 5245272,
      "name": "floatBufferViews",
      "target": 34963
    },
    {
      "buffer": 0,
      "byteLength": 2181632,
      "byteOffset": 5245272,
      "byteStride": 8,
      "name": "floatBufferViews",
      "target": 34962
    },
    {
      "buffer": 0,
      "byteLength": 6544896,
      "byteOffset": 7426904,
      "byteStride": 12,
      "name": "floatBufferViews",
      "target": 34962
    }
  ],
  "buffers": [
    {
      "byteLength": 13971800,
      "uri": "scene.bin"
    }
  ],
  "extensionsUsed": [
    "KHR_materials_unlit"
  ],
  "images": [
    {
      "uri": "textures/roca3Sketchfab_baseColor.png"
    }
  ],
  "materials": [
    {
      "doubleSided": true,
      "extensions": {
        "KHR_materials_unlit": {}
      },
      "name": "roca3Sketchfab",
      "pbrMetallicRoughness": {
        "baseColorTexture": {
          "index": 0
        },
        "metallicFactor": 0.0
      }
    }
  ],
  "meshes": [
    {
      "name": "Object_0",
      "primitives": [
        {
          "attributes": {
            "NORMAL": 1,
            "POSITION": 0,
            "TEXCOORD_0": 2
          },
          "indices": 3,
          "material": 0,
          "mode": 4
        }
      ]
    },
    {
      "name": "Object_1",
      "primitives": [
        {
          "attributes": {
            "NORMAL": 5,
            "POSITION": 4,
            "TEXCOORD_0": 6
          },
          "indices": 7,
          "material": 0,
          "mode": 4
        }
      ]
    },
    {
      "name": "Object_2",
      "primitives": [
        {
          "attributes": {
            "NORMAL": 9,
            "POSITION": 8,
            "TEXCOORD_0": 10
          },
          "indices": 11,
          "material": 0,
          "mode": 4
        }
      ]
    },
    {
      "name": "Object_3",
      "primitives": [
        {
          "attributes": {
            "NORMAL": 13,
            "POSITION": 12,
            "TEXCOORD_0": 14
          },
          "indices": 15,
          "material": 0,
          "mode": 4
        }
      ]
    },
    {
      "name": "Object_4",
      "primitives": [
        {
          "attributes": {
            "NORMAL": 17,
            "POSITION": 16,
            "TEXCOORD_0": 18
          },
          "indices": 19,
          "material": 0,
          "mode": 4
        }
      ]
    }
  ],
  "nodes": [
    {
      "children": [
        1
      ],
      "matrix": [
        -0.31804374363031407,
        -0.0023404110207694293,
        -0.2456272437272311,
        0.0,
        -0.18319328466831486,
        -0.265440777203585,
        0.2397320494196275,
        0.0,
        -0.16364118203748834,
        0.3017047529201288,
        0.20901159567809918,
        0.0,
        0.0,
        0.0,
        0.0,
        1.0
      ],
      "name": "Sketchfab_model"
    },
    {
      "children": [
        2,
        3,
        4,
        5,
        6
      ],
      "name": "roca3Sketchfab.obj.cleaner.materialmerger.gles"
    },
    {
      "mesh": 0,
      "name": "Object_2"
    },
    {
      "mesh": 1,
      "name": "Object_3"
    },
    {
      "mesh": 2,
      "name": "Object_4"
    },
    {
      "mesh": 3,
      "name": "Object_5"
    },
    {
      "mesh": 4,
      "name": "Object_6"
    }
  ],
  "samplers": [
    {
      "magFilter": 9729,
      "minFilter": 9987,
      "wrapS": 10497,
      "wrapT": 10497
    }
  ],
  "scene": 0,
  "scenes": [
    {
      "name": "Sketchfab_Scene",
      "nodes": [
        0
      ]
    }
  ],
  "textures": [
    {
      "sampler": 0,
      "source": 0
    }
  ]
}
