{
  "accessors": [
    {
      "bufferView": 2,
      "componentType": 5126,
      "count": 65532,
      "max": [112.38600158691406, 55.93899917602539, 170.99000549316406],
      "min": [-173.93699645996094, -66.92729949951172, -91.23100280761719],
      "type": "VEC3"
    },
    {
      "bufferView": 2,
      "byteOffset": 786384,
      "componentType": 5126,
      "count": 65532,
      "max": [0.9999731183052063, 0.9999402165412903, 0.9999276399612427],
      "min": [-0.9999951124191284, -0.9999929070472717, -0.9999312162399292],
      "type": "VEC3"
    },
    {
      "bufferView": 1,
      "componentType": 5126,
      "count": 65532,
      "max": [0.9980210065841675, 0.9979209899902344],
      "min": [0.001882690005004406, 0.0004886980168521404],
      "type": "VEC2"
    },
    {
      "bufferView": 0,
      "componentType": 5125,
      "count": 267591,
      "type": "SCALAR"
    },
    {
      "bufferView": 2,
      "byteOffset": 1572768,
      "componentType": 5126,
      "count": 65532,
      "max": [113.91500091552734, 59.951900482177734, 346.7980041503906],
      "min": [-187.93800354003906, -73.10420227050781, -148.29400634765625],
      "type": "VEC3"
    },
    {
      "bufferView": 2,
      "byteOffset": 2359152,
      "componentType": 5126,
      "count": 65532,
      "max": [0.9999467730522156, 0.9999972581863403, 0.9999808669090271],
      "min": [-0.9999207854270935, -0.9995982646942139, -0.999846875667572],
      "type": "VEC3"
    },
    {
      "bufferView": 1,
      "byteOffset": 524256,
      "componentType": 5126,
      "count": 65532,
      "max": [0.9980130195617676, 0.9975399971008301],
      "min": [0.0006465910119004548, 0.0004906650283373892],
      "type": "VEC2"
    },
    {
      "bufferView": 0,
      "byteOffset": 1070364,
      "componentType": 5125,
      "count": 244305,
      "type": "SCALAR"
    },
    {
      "bufferView": 2,
      "byteOffset": 3145536,
      "componentType": 5126,
      "count": 65532,
      "max": [113.91500091552734, 64.49240112304688, 47.77109909057617],
      "min": [-163.4029998779297, -72.00990295410156, -331.1449890136719],
      "type": "VEC3"
    },
    {
      "bufferView": 2,
      "byteOffset": 3931920,
      "componentType": 5126,
      "count": 65532,
      "max": [0.9999951124191284, 0.9999286532402039, 0.9997024536132813],
      "min": [-0.9999897480010986, -0.999986469745636, -0.9998592138290405],
      "type": "VEC3"
    },
    {
      "bufferView": 1,
      "byteOffset": 1048512,
      "componentType": 5126,
      "count": 65532,
      "max": [0.9988600015640259, 0.9971359968185425],
      "min": [0.001882690005004406, 0.001882690005004406],
      "type": "VEC2"
    },
    {
      "bufferView": 0,
      "byteOffset": 2047584,
      "componentType": 5125,
      "count": 253743,
      "type": "SCALAR"
    },
    {
      "bufferView": 2,
      "byteOffset": 4718304,
      "componentType": 5126,
      "count": 2626,
      "max": [111.28399658203125, 55.64609909057617, 346.1499938964844],
      "min": [-165.26699829101563, -60.76729965209961, -331.0799865722656],
      "type": "VEC3"
    },
    {
      "bufferView": 2,
      "byteOffset": 4749816,
      "componentType": 5126,
      "count": 2626,
      "max": [0.9999125003814697, 0.9990903735160828, 0.9839881062507629],
      "min": [-0.9988908767700195, -0.9918246269226074, -0.9979168772697449],
      "type": "VEC3"
    },
    {
      "bufferView": 1,
      "byteOffset": 1572768,
      "componentType": 5126,
      "count": 2626,
      "max": [0.9978190064430237, 0.997484028339386],
      "min": [0.001882690005004406, 0.001882690005004406],
      "type": "VEC2"
    },
    {
      "bufferView": 0,
      "byteOffset": 3062556,
      "componentType": 5125,
      "count": 5853,
      "type": "SCALAR"
    }
  ],
  "asset": {
    "extras": {
      "author": "Auckland Museum (https://sketchfab.com/aucklandmuseum)",
      "license": "CC-BY-4.0 (http://creativecommons.org/licenses/by/4.0/)",
      "source": "https://sketchfab.com/3d-models/king-crab-ba482cf822e84d11950924b79ea8ed5b",
      "title": "King Crab"
    },
    "generator": "Sketchfab-12.67.0",
    "version": "2.0"
  },
  "bufferViews": [
    {
      "buffer": 0,
      "byteLength": 3085968,
      "name": "floatBufferViews",
      "target": 34963
    },
    {
      "buffer": 0,
      "byteLength": 1593776,
      "byteOffset": 3085968,
      "byteStride": 8,
      "name": "floatBufferViews",
      "target": 34962
    },
    {
      "buffer": 0,
      "byteLength": 4781328,
      "byteOffset": 4679744,
      "byteStride": 12,
      "name": "floatBufferViews",
      "target": 34962
    }
  ],
  "buffers": [
    {
      "byteLength": 9461072,
      "uri": "scene.bin"
    }
  ],
  "images": [
    {
      "uri": "textures/material_diffuse.png"
    }
  ],
  "materials": [
    {
      "doubleSided": true,
      "name": "material",
      "pbrMetallicRoughness": {
        "baseColorTexture": {
          "index": 0
        },
        "metallicFactor": 0.01,
        "roughnessFactor": 0.86
      }
    }
  ],
  "meshes": [
    {
      "name": "Object_0",
      "primitives": [
        {
          "attributes": {
            "NORMAL": 1,
            "POSITION": 0,
            "TEXCOORD_0": 2
          },
          "indices": 3,
          "material": 0,
          "mode": 4
        }
      ]
    },
    {
      "name": "Object_1",
      "primitives": [
        {
          "attributes": {
            "NORMAL": 5,
            "POSITION": 4,
            "TEXCOORD_0": 6
          },
          "indices": 7,
          "material": 0,
          "mode": 4
        }
      ]
    },
    {
      "name": "Object_2",
      "primitives": [
        {
          "attributes": {
            "NORMAL": 9,
            "POSITION": 8,
            "TEXCOORD_0": 10
          },
          "indices": 11,
          "material": 0,
          "mode": 4
        }
      ]
    },
    {
      "name": "Object_3",
      "primitives": [
        {
          "attributes": {
            "NORMAL": 13,
            "POSITION": 12,
            "TEXCOORD_0": 14
          },
          "indices": 15,
          "material": 0,
          "mode": 4
        }
      ]
    }
  ],
  "nodes": [
    {
      "children": [1],
      "matrix": [
        1.0, 0.0, 0.0, 0.0, 0.0, -0.9999664425849915, -0.008194711059332116,
        0.0, 0.0, 0.008194711059332116, -0.9999664425849915, 0.0, 0.0,
        3.457598924636838, 12.097942352294922, 1.0
      ],
      "name": "Sketchfab_model"
    },
    {
      "children": [2, 3, 4, 5],
      "name": "Spider_Crab_Decimated.obj.cleaner.gles"
    },
    {
      "mesh": 0,
      "name": "Object_2"
    },
    {
      "mesh": 1,
      "name": "Object_3"
    },
    {
      "mesh": 2,
      "name": "Object_4"
    },
    {
      "mesh": 3,
      "name": "Object_5"
    }
  ],
  "samplers": [
    {
      "magFilter": 9729,
      "minFilter": 9987,
      "wrapS": 10497,
      "wrapT": 10497
    }
  ],
  "scene": 0,
  "scenes": [
    {
      "name": "Sketchfab_Scene",
      "nodes": [0]
    }
  ],
  "textures": [
    {
      "sampler": 0,
      "source": 0
    }
  ]
}
